%TF.GenerationSoftware,KiCad,Pcbnew,8.0.3*%
%TF.CreationDate,2024-08-02T11:09:55+07:00*%
%TF.ProjectId,waterleak V.1,77617465-726c-4656-916b-20562e312e6b,rev?*%
%TF.SameCoordinates,Original*%
%TF.FileFunction,Soldermask,Top*%
%TF.FilePolarity,Negative*%
%FSLAX46Y46*%
G04 Gerber Fmt 4.6, Leading zero omitted, Abs format (unit mm)*
G04 Created by KiCad (PCBNEW 8.0.3) date 2024-08-02 11:09:55*
%MOMM*%
%LPD*%
G01*
G04 APERTURE LIST*
G04 Aperture macros list*
%AMRoundRect*
0 Rectangle with rounded corners*
0 $1 Rounding radius*
0 $2 $3 $4 $5 $6 $7 $8 $9 X,Y pos of 4 corners*
0 Add a 4 corners polygon primitive as box body*
4,1,4,$2,$3,$4,$5,$6,$7,$8,$9,$2,$3,0*
0 Add four circle primitives for the rounded corners*
1,1,$1+$1,$2,$3*
1,1,$1+$1,$4,$5*
1,1,$1+$1,$6,$7*
1,1,$1+$1,$8,$9*
0 Add four rect primitives between the rounded corners*
20,1,$1+$1,$2,$3,$4,$5,0*
20,1,$1+$1,$4,$5,$6,$7,0*
20,1,$1+$1,$6,$7,$8,$9,0*
20,1,$1+$1,$8,$9,$2,$3,0*%
G04 Aperture macros list end*
%ADD10RoundRect,0.250000X-0.350000X-0.450000X0.350000X-0.450000X0.350000X0.450000X-0.350000X0.450000X0*%
%ADD11RoundRect,0.150000X-0.675000X-0.150000X0.675000X-0.150000X0.675000X0.150000X-0.675000X0.150000X0*%
%ADD12C,0.800000*%
%ADD13C,6.400000*%
%ADD14R,2.400000X2.400000*%
%ADD15C,2.400000*%
%ADD16RoundRect,0.150000X0.150000X-0.587500X0.150000X0.587500X-0.150000X0.587500X-0.150000X-0.587500X0*%
%ADD17RoundRect,0.250000X-0.475000X0.337500X-0.475000X-0.337500X0.475000X-0.337500X0.475000X0.337500X0*%
%ADD18RoundRect,0.250000X-0.450000X0.350000X-0.450000X-0.350000X0.450000X-0.350000X0.450000X0.350000X0*%
%ADD19RoundRect,0.250000X0.350000X0.450000X-0.350000X0.450000X-0.350000X-0.450000X0.350000X-0.450000X0*%
%ADD20C,1.440000*%
G04 APERTURE END LIST*
D10*
%TO.C,R4*%
X83900000Y-66000000D03*
X85900000Y-66000000D03*
%TD*%
D11*
%TO.C,U2*%
X81675000Y-68595000D03*
X81675000Y-69865000D03*
X81675000Y-71135000D03*
X81675000Y-72405000D03*
X86925000Y-72405000D03*
X86925000Y-71135000D03*
X86925000Y-69865000D03*
X86925000Y-68595000D03*
%TD*%
D12*
%TO.C,H1*%
X92600000Y-56000000D03*
X93302944Y-54302944D03*
X93302944Y-57697056D03*
X95000000Y-53600000D03*
D13*
X95000000Y-56000000D03*
D12*
X95000000Y-58400000D03*
X96697056Y-54302944D03*
X96697056Y-57697056D03*
X97400000Y-56000000D03*
%TD*%
%TO.C,H3*%
X92600000Y-79000000D03*
X93302944Y-77302944D03*
X93302944Y-80697056D03*
X95000000Y-76600000D03*
D13*
X95000000Y-79000000D03*
D12*
X95000000Y-81400000D03*
X96697056Y-77302944D03*
X96697056Y-80697056D03*
X97400000Y-79000000D03*
%TD*%
%TO.C,H4*%
X71600000Y-79000000D03*
X72302944Y-77302944D03*
X72302944Y-80697056D03*
X74000000Y-76600000D03*
D13*
X74000000Y-79000000D03*
D12*
X74000000Y-81400000D03*
X75697056Y-77302944D03*
X75697056Y-80697056D03*
X76400000Y-79000000D03*
%TD*%
%TO.C,H2*%
X71600000Y-56000000D03*
X72302944Y-54302944D03*
X72302944Y-57697056D03*
X74000000Y-53600000D03*
D13*
X74000000Y-56000000D03*
D12*
X74000000Y-58400000D03*
X75697056Y-54302944D03*
X75697056Y-57697056D03*
X76400000Y-56000000D03*
%TD*%
D14*
%TO.C,J2*%
X83100000Y-56000000D03*
D15*
X86600000Y-56000000D03*
%TD*%
D16*
%TO.C,Q2*%
X89400000Y-65700000D03*
X91300000Y-65700000D03*
X90350000Y-63825000D03*
%TD*%
D17*
%TO.C,C1*%
X89900000Y-68862500D03*
X89900000Y-70937500D03*
%TD*%
D18*
%TO.C,R6*%
X81400000Y-63800000D03*
X81400000Y-65800000D03*
%TD*%
D19*
%TO.C,R5*%
X85900000Y-63625000D03*
X83900000Y-63625000D03*
%TD*%
D20*
%TO.C,RV2*%
X75200000Y-64160000D03*
X75200000Y-66700000D03*
X75200000Y-69240000D03*
%TD*%
D14*
%TO.C,J1*%
X88100000Y-78800000D03*
D15*
X84600000Y-78800000D03*
X81100000Y-78800000D03*
%TD*%
M02*
