%TF.GenerationSoftware,KiCad,Pcbnew,8.0.3*%
%TF.CreationDate,2024-08-02T11:09:55+07:00*%
%TF.ProjectId,waterleak V.1,77617465-726c-4656-916b-20562e312e6b,rev?*%
%TF.SameCoordinates,Original*%
%TF.FileFunction,Soldermask,Bot*%
%TF.FilePolarity,Negative*%
%FSLAX46Y46*%
G04 Gerber Fmt 4.6, Leading zero omitted, Abs format (unit mm)*
G04 Created by KiCad (PCBNEW 8.0.3) date 2024-08-02 11:09:55*
%MOMM*%
%LPD*%
G01*
G04 APERTURE LIST*
%ADD10C,0.800000*%
%ADD11C,6.400000*%
%ADD12R,2.400000X2.400000*%
%ADD13C,2.400000*%
%ADD14C,1.440000*%
G04 APERTURE END LIST*
D10*
%TO.C,H1*%
X92600000Y-56000000D03*
X93302944Y-54302944D03*
X93302944Y-57697056D03*
X95000000Y-53600000D03*
D11*
X95000000Y-56000000D03*
D10*
X95000000Y-58400000D03*
X96697056Y-54302944D03*
X96697056Y-57697056D03*
X97400000Y-56000000D03*
%TD*%
%TO.C,H3*%
X92600000Y-79000000D03*
X93302944Y-77302944D03*
X93302944Y-80697056D03*
X95000000Y-76600000D03*
D11*
X95000000Y-79000000D03*
D10*
X95000000Y-81400000D03*
X96697056Y-77302944D03*
X96697056Y-80697056D03*
X97400000Y-79000000D03*
%TD*%
%TO.C,H4*%
X71600000Y-79000000D03*
X72302944Y-77302944D03*
X72302944Y-80697056D03*
X74000000Y-76600000D03*
D11*
X74000000Y-79000000D03*
D10*
X74000000Y-81400000D03*
X75697056Y-77302944D03*
X75697056Y-80697056D03*
X76400000Y-79000000D03*
%TD*%
%TO.C,H2*%
X71600000Y-56000000D03*
X72302944Y-54302944D03*
X72302944Y-57697056D03*
X74000000Y-53600000D03*
D11*
X74000000Y-56000000D03*
D10*
X74000000Y-58400000D03*
X75697056Y-54302944D03*
X75697056Y-57697056D03*
X76400000Y-56000000D03*
%TD*%
D12*
%TO.C,J2*%
X83100000Y-56000000D03*
D13*
X86600000Y-56000000D03*
%TD*%
D14*
%TO.C,RV2*%
X75200000Y-64160000D03*
X75200000Y-66700000D03*
X75200000Y-69240000D03*
%TD*%
D12*
%TO.C,J1*%
X88100000Y-78800000D03*
D13*
X84600000Y-78800000D03*
X81100000Y-78800000D03*
%TD*%
M02*
