M48
; DRILL file {KiCad 8.0.3} date 2024-08-02T11:09:49+0700
; FORMAT={-:-/ absolute / inch / decimal}
; #@! TF.CreationDate,2024-08-02T11:09:49+07:00
; #@! TF.GenerationSoftware,Kicad,Pcbnew,8.0.3
; #@! TF.FileFunction,Plated,1,2,PTH
FMAT,2
INCH
; #@! TA.AperFunction,Plated,PTH,ViaDrill
T1C0.0118
; #@! TA.AperFunction,Plated,PTH,ComponentDrill
T2C0.0197
; #@! TA.AperFunction,Plated,PTH,ComponentDrill
T3C0.0315
; #@! TA.AperFunction,Plated,PTH,ComponentDrill
T4C0.0472
; #@! TA.AperFunction,Plated,PTH,ComponentDrill
T5C0.1260
%
G90
G05
T1
X3.1181Y-2.5906
X3.3031Y-2.4409
T2
X2.8189Y-2.2047
X2.8189Y-3.1102
X2.8466Y-2.1379
X2.8466Y-2.2715
X2.8466Y-3.0434
X2.8466Y-3.177
X2.9134Y-2.1102
X2.9134Y-2.2992
X2.9134Y-3.0157
X2.9134Y-3.2047
X2.9802Y-2.1379
X2.9802Y-2.2715
X2.9802Y-3.0434
X2.9802Y-3.177
X3.0079Y-2.2047
X3.0079Y-3.1102
X3.6457Y-2.2047
X3.6457Y-3.1102
X3.6733Y-2.1379
X3.6733Y-2.2715
X3.6733Y-3.0434
X3.6733Y-3.177
X3.7402Y-2.1102
X3.7402Y-2.2992
X3.7402Y-3.0157
X3.7402Y-3.2047
X3.807Y-2.1379
X3.807Y-2.2715
X3.807Y-3.0434
X3.807Y-3.177
X3.8346Y-2.2047
X3.8346Y-3.1102
T3
X2.9606Y-2.526
X2.9606Y-2.626
X2.9606Y-2.726
T4
X3.1929Y-3.1024
X3.2717Y-2.2047
X3.3307Y-3.1024
X3.4094Y-2.2047
X3.4685Y-3.1024
T5
X2.9134Y-2.2047
X2.9134Y-3.1102
X3.7402Y-2.2047
X3.7402Y-3.1102
M30
