%TF.GenerationSoftware,KiCad,Pcbnew,8.0.3*%
%TF.CreationDate,2024-08-02T11:09:55+07:00*%
%TF.ProjectId,waterleak V.1,77617465-726c-4656-916b-20562e312e6b,rev?*%
%TF.SameCoordinates,Original*%
%TF.FileFunction,Legend,Bot*%
%TF.FilePolarity,Positive*%
%FSLAX46Y46*%
G04 Gerber Fmt 4.6, Leading zero omitted, Abs format (unit mm)*
G04 Created by KiCad (PCBNEW 8.0.3) date 2024-08-02 11:09:55*
%MOMM*%
%LPD*%
G01*
G04 APERTURE LIST*
%ADD10C,0.000000*%
G04 APERTURE END LIST*
D10*
%TO.C,G\u002A\u002A\u002A*%
G36*
X84482537Y-74543829D02*
G01*
X84509003Y-74573621D01*
X84510023Y-74615036D01*
X84490727Y-74637211D01*
X84455899Y-74648719D01*
X84420268Y-74646225D01*
X84398085Y-74628070D01*
X84397890Y-74627586D01*
X84390459Y-74580408D01*
X84407052Y-74546896D01*
X84444185Y-74534147D01*
X84482537Y-74543829D01*
G37*
G36*
X85903652Y-73058499D02*
G01*
X85925578Y-73079706D01*
X85935481Y-73115247D01*
X85924875Y-73148787D01*
X85897763Y-73170478D01*
X85858147Y-73170473D01*
X85845812Y-73164294D01*
X85826941Y-73134957D01*
X85828221Y-73096850D01*
X85850565Y-73062915D01*
X85871372Y-73051180D01*
X85903652Y-73058499D01*
G37*
G36*
X85677685Y-61090932D02*
G01*
X85677685Y-61401286D01*
X85530675Y-61401286D01*
X85383665Y-61401286D01*
X85383665Y-61286945D01*
X85383665Y-61172604D01*
X84762958Y-61172604D01*
X84142251Y-61172604D01*
X84142251Y-60976591D01*
X84142251Y-60780578D01*
X84909968Y-60780578D01*
X85677685Y-60780578D01*
X85677685Y-61090932D01*
G37*
G36*
X86132195Y-60816730D02*
G01*
X86199001Y-60837033D01*
X86227974Y-60856853D01*
X86269116Y-60910626D01*
X86292199Y-60978681D01*
X86297151Y-61052767D01*
X86283898Y-61124632D01*
X86252366Y-61186023D01*
X86202484Y-61228690D01*
X86198545Y-61230668D01*
X86129440Y-61250802D01*
X86055002Y-61250808D01*
X85984225Y-61232888D01*
X85926103Y-61199246D01*
X85889633Y-61152083D01*
X85883276Y-61125600D01*
X85878662Y-61073536D01*
X85878748Y-61012913D01*
X85880162Y-60987740D01*
X85887062Y-60934529D01*
X85901251Y-60898247D01*
X85926525Y-60867335D01*
X85929755Y-60864232D01*
X85985343Y-60831690D01*
X86056899Y-60815402D01*
X86132195Y-60816730D01*
G37*
G36*
X84807329Y-66743199D02*
G01*
X84942769Y-66744930D01*
X85052251Y-66747955D01*
X85139090Y-66752398D01*
X85206601Y-66758384D01*
X85258098Y-66766040D01*
X85305031Y-66776179D01*
X85439909Y-66821708D01*
X85548570Y-66886711D01*
X85631125Y-66971327D01*
X85687686Y-67075695D01*
X85718365Y-67199955D01*
X85723274Y-67344244D01*
X85708833Y-67463334D01*
X85670769Y-67583488D01*
X85609238Y-67681728D01*
X85523440Y-67759272D01*
X85412577Y-67817336D01*
X85326495Y-67851257D01*
X85502090Y-67852316D01*
X85677685Y-67853376D01*
X85677685Y-68008553D01*
X85677685Y-68163729D01*
X84909968Y-68163729D01*
X84142251Y-68163729D01*
X84142251Y-67968577D01*
X84142251Y-67773424D01*
X84653933Y-67768480D01*
X85165615Y-67763537D01*
X85233481Y-67718599D01*
X85254226Y-67703751D01*
X85317757Y-67635963D01*
X85355111Y-67550375D01*
X85367331Y-67444855D01*
X85365438Y-67402002D01*
X85356804Y-67341814D01*
X85343416Y-67299141D01*
X85300119Y-67240294D01*
X85233296Y-67185906D01*
X85158560Y-67151715D01*
X85129616Y-67147425D01*
X85069956Y-67143219D01*
X84985190Y-67139723D01*
X84879295Y-67137063D01*
X84756249Y-67135365D01*
X84620032Y-67134753D01*
X84142251Y-67134662D01*
X84142251Y-66938649D01*
X84142251Y-66742636D01*
X84639013Y-66742636D01*
X84642618Y-66742636D01*
X84807329Y-66743199D01*
G37*
G36*
X85067582Y-63209233D02*
G01*
X85226247Y-63244941D01*
X85366997Y-63304392D01*
X85487804Y-63386184D01*
X85586640Y-63488914D01*
X85661475Y-63611181D01*
X85710280Y-63751584D01*
X85716759Y-63786360D01*
X85724090Y-63875929D01*
X85722429Y-63977193D01*
X85711209Y-64067345D01*
X85670663Y-64200537D01*
X85603585Y-64316271D01*
X85511290Y-64412500D01*
X85395093Y-64487176D01*
X85326495Y-64521131D01*
X85502090Y-64521144D01*
X85677685Y-64521157D01*
X85677685Y-64684501D01*
X85677685Y-64847845D01*
X84901800Y-64847845D01*
X84624116Y-64847845D01*
X83570546Y-64847845D01*
X83570546Y-64643665D01*
X83570546Y-64439485D01*
X83946238Y-64439485D01*
X84321929Y-64439485D01*
X84254980Y-64372536D01*
X84180033Y-64275631D01*
X84126963Y-64160099D01*
X84096463Y-64032328D01*
X84420081Y-64032328D01*
X84436573Y-64143018D01*
X84480218Y-64247185D01*
X84549859Y-64338214D01*
X84584655Y-64371406D01*
X84628447Y-64405150D01*
X84674465Y-64427287D01*
X84730301Y-64440175D01*
X84803549Y-64446176D01*
X84901800Y-64447652D01*
X84967198Y-64447060D01*
X85051180Y-64442552D01*
X85115283Y-64431556D01*
X85167343Y-64411664D01*
X85215194Y-64380470D01*
X85266672Y-64335566D01*
X85315839Y-64282952D01*
X85359636Y-64211133D01*
X85383486Y-64127523D01*
X85391035Y-64022958D01*
X85391042Y-64021597D01*
X85389836Y-63951145D01*
X85383706Y-63901193D01*
X85370102Y-63859848D01*
X85346471Y-63815215D01*
X85335522Y-63797512D01*
X85260279Y-63710763D01*
X85163800Y-63648517D01*
X85046794Y-63611122D01*
X84909968Y-63598930D01*
X84850862Y-63601296D01*
X84722072Y-63624512D01*
X84613725Y-63672043D01*
X84526845Y-63743343D01*
X84462460Y-63837863D01*
X84431897Y-63921731D01*
X84420081Y-64032328D01*
X84096463Y-64032328D01*
X84096449Y-64032270D01*
X84088827Y-63898139D01*
X84104437Y-63763700D01*
X84143617Y-63634947D01*
X84206706Y-63517874D01*
X84217091Y-63503215D01*
X84314923Y-63396272D01*
X84435386Y-63311309D01*
X84576221Y-63249351D01*
X84735168Y-63211424D01*
X84909968Y-63198553D01*
X85067582Y-63209233D01*
G37*
G36*
X85674161Y-68610641D02*
G01*
X85674973Y-68671822D01*
X85673877Y-68735760D01*
X85670781Y-68781426D01*
X85665994Y-68801637D01*
X85665823Y-68801772D01*
X85646233Y-68808772D01*
X85598749Y-68822856D01*
X85526958Y-68843042D01*
X85434447Y-68868348D01*
X85324804Y-68897792D01*
X85201616Y-68930393D01*
X85068471Y-68965168D01*
X84969033Y-68991018D01*
X84835614Y-69025967D01*
X84729064Y-69054408D01*
X84646442Y-69077277D01*
X84584810Y-69095513D01*
X84541228Y-69110052D01*
X84512755Y-69121830D01*
X84496453Y-69131785D01*
X84489381Y-69140853D01*
X84488600Y-69149971D01*
X84489709Y-69153965D01*
X84495926Y-69162432D01*
X84509301Y-69172157D01*
X84532022Y-69183891D01*
X84566280Y-69198387D01*
X84614264Y-69216400D01*
X84678164Y-69238682D01*
X84760170Y-69265987D01*
X84862471Y-69299067D01*
X84987257Y-69338677D01*
X85136718Y-69385569D01*
X85313044Y-69440496D01*
X85518424Y-69504212D01*
X85677685Y-69553557D01*
X85677685Y-69748868D01*
X85677684Y-69750303D01*
X85676693Y-69825639D01*
X85674057Y-69887279D01*
X85670172Y-69928901D01*
X85665436Y-69944180D01*
X85665406Y-69944179D01*
X85647576Y-69939054D01*
X85601868Y-69924582D01*
X85531351Y-69901768D01*
X85439095Y-69871620D01*
X85328168Y-69835143D01*
X85201640Y-69793343D01*
X85062578Y-69747228D01*
X84914053Y-69697803D01*
X84174919Y-69451426D01*
X84174919Y-69328142D01*
X84174919Y-69204857D01*
X84116138Y-69214396D01*
X84032375Y-69237578D01*
X83955034Y-69285860D01*
X83901318Y-69356465D01*
X83887972Y-69385021D01*
X83875941Y-69422137D01*
X83868826Y-69466919D01*
X83865432Y-69527694D01*
X83864566Y-69612785D01*
X83864566Y-69797170D01*
X83693054Y-69797170D01*
X83521543Y-69797170D01*
X83521867Y-69646077D01*
X83523906Y-69553912D01*
X83535649Y-69410390D01*
X83557217Y-69289042D01*
X83587925Y-69194560D01*
X83599814Y-69170175D01*
X83661065Y-69081990D01*
X83741993Y-69004355D01*
X83832451Y-68947521D01*
X83846655Y-68941923D01*
X83894168Y-68926144D01*
X83968193Y-68903353D01*
X84065549Y-68874467D01*
X84183052Y-68840406D01*
X84317519Y-68802090D01*
X84465767Y-68760436D01*
X84624614Y-68716364D01*
X84790875Y-68670793D01*
X85669517Y-68431431D01*
X85674161Y-68610641D01*
G37*
G36*
X84734340Y-61606408D02*
G01*
X84831519Y-61654684D01*
X84915622Y-61726885D01*
X84981392Y-61822117D01*
X84994858Y-61851009D01*
X85027187Y-61945283D01*
X85054354Y-62061645D01*
X85074460Y-62192537D01*
X85078701Y-62227336D01*
X85094868Y-62334861D01*
X85113615Y-62414470D01*
X85136939Y-62469893D01*
X85166841Y-62504862D01*
X85205318Y-62523107D01*
X85254369Y-62528360D01*
X85257083Y-62528338D01*
X85322483Y-62512617D01*
X85374074Y-62470186D01*
X85409834Y-62404696D01*
X85427737Y-62319798D01*
X85425762Y-62219143D01*
X85425548Y-62217342D01*
X85401848Y-62119850D01*
X85357621Y-62046500D01*
X85293569Y-61998464D01*
X85236656Y-61971457D01*
X85236656Y-61798492D01*
X85236656Y-61625527D01*
X85310213Y-61635609D01*
X85413938Y-61663173D01*
X85510978Y-61719263D01*
X85591622Y-61800450D01*
X85654463Y-61904366D01*
X85698095Y-62028644D01*
X85721110Y-62170917D01*
X85722102Y-62328817D01*
X85714428Y-62407680D01*
X85683565Y-62551073D01*
X85632838Y-62670087D01*
X85562879Y-62763983D01*
X85474322Y-62832020D01*
X85367800Y-62873458D01*
X85243947Y-62887557D01*
X85206192Y-62886415D01*
X85091358Y-62865146D01*
X84994063Y-62816839D01*
X84914114Y-62741272D01*
X84851316Y-62638221D01*
X84805476Y-62507461D01*
X84776399Y-62348771D01*
X84763042Y-62243824D01*
X84749713Y-62157296D01*
X84736178Y-62093425D01*
X84721078Y-62047065D01*
X84703056Y-62013065D01*
X84680752Y-61986277D01*
X84660465Y-61968785D01*
X84601950Y-61942643D01*
X84541550Y-61944626D01*
X84484883Y-61972480D01*
X84437571Y-62023951D01*
X84405232Y-62096785D01*
X84405223Y-62096818D01*
X84392122Y-62173247D01*
X84388879Y-62262210D01*
X84395235Y-62349068D01*
X84410932Y-62419184D01*
X84431451Y-62466620D01*
X84479282Y-62529759D01*
X84546527Y-62571669D01*
X84599614Y-62594136D01*
X84599614Y-62767552D01*
X84599614Y-62940968D01*
X84529537Y-62933070D01*
X84418572Y-62905118D01*
X84319194Y-62848263D01*
X84234699Y-62764790D01*
X84167271Y-62656865D01*
X84119097Y-62526651D01*
X84111307Y-62491383D01*
X84099935Y-62400112D01*
X84095016Y-62293897D01*
X84096552Y-62184262D01*
X84104547Y-62082731D01*
X84119000Y-62000829D01*
X84128226Y-61967175D01*
X84165971Y-61863730D01*
X84215391Y-61779239D01*
X84282244Y-61703202D01*
X84320005Y-61670438D01*
X84416917Y-61614072D01*
X84521782Y-61585208D01*
X84629342Y-61582951D01*
X84734340Y-61606408D01*
G37*
G36*
X84611865Y-65093366D02*
G01*
X84687575Y-65093548D01*
X84848834Y-65094910D01*
X84982596Y-65097846D01*
X85092505Y-65102694D01*
X85182204Y-65109792D01*
X85255338Y-65119476D01*
X85315550Y-65132084D01*
X85366485Y-65147953D01*
X85411785Y-65167421D01*
X85498874Y-65223338D01*
X85573817Y-65303566D01*
X85631687Y-65406748D01*
X85672866Y-65534078D01*
X85697734Y-65686754D01*
X85706673Y-65865971D01*
X85700063Y-66072926D01*
X85685852Y-66293440D01*
X85519352Y-66298085D01*
X85352852Y-66302730D01*
X85362284Y-65987731D01*
X85362816Y-65969715D01*
X85365562Y-65860000D01*
X85366383Y-65777099D01*
X85365058Y-65715922D01*
X85361367Y-65671380D01*
X85355089Y-65638381D01*
X85346005Y-65611836D01*
X85341268Y-65601540D01*
X85294465Y-65541032D01*
X85228441Y-65500062D01*
X85152818Y-65484948D01*
X85093482Y-65484887D01*
X85085667Y-65750321D01*
X85081862Y-65844277D01*
X85071539Y-65972725D01*
X85054922Y-66077586D01*
X85030724Y-66164296D01*
X84997659Y-66238289D01*
X84954442Y-66305003D01*
X84933800Y-66330117D01*
X84851650Y-66399232D01*
X84753905Y-66445291D01*
X84646534Y-66468133D01*
X84636494Y-66468085D01*
X84535507Y-66467598D01*
X84426793Y-66443526D01*
X84326361Y-66395758D01*
X84240180Y-66324133D01*
X84233365Y-66316684D01*
X84192277Y-66267197D01*
X84162781Y-66218845D01*
X84139190Y-66160516D01*
X84115818Y-66081093D01*
X84110105Y-66056233D01*
X84100012Y-65960080D01*
X84102858Y-65853610D01*
X84109806Y-65805463D01*
X84378910Y-65805463D01*
X84386693Y-65891241D01*
X84396521Y-65923145D01*
X84437757Y-65995900D01*
X84495454Y-66047230D01*
X84563678Y-66076292D01*
X84636494Y-66082246D01*
X84707966Y-66064253D01*
X84772161Y-66021471D01*
X84823144Y-65953059D01*
X84833410Y-65926791D01*
X84844342Y-65874002D01*
X84852223Y-65797627D01*
X84857655Y-65693151D01*
X84865300Y-65484887D01*
X84735026Y-65484887D01*
X84637525Y-65491185D01*
X84545635Y-65515600D01*
X84475932Y-65559706D01*
X84425375Y-65624876D01*
X84423819Y-65627739D01*
X84392046Y-65712393D01*
X84378910Y-65805463D01*
X84109806Y-65805463D01*
X84117722Y-65750608D01*
X84143680Y-65664864D01*
X84159020Y-65634087D01*
X84214554Y-65556763D01*
X84285270Y-65489455D01*
X84360402Y-65443178D01*
X84379848Y-65434271D01*
X84389386Y-65426772D01*
X84378046Y-65422647D01*
X84341897Y-65420814D01*
X84277009Y-65420189D01*
X84142251Y-65419549D01*
X84142251Y-65256205D01*
X84142251Y-65092861D01*
X84611865Y-65093366D01*
G37*
G36*
X84679479Y-59200092D02*
G01*
X84788054Y-59236553D01*
X84800925Y-59243125D01*
X84881606Y-59300247D01*
X84947383Y-59378864D01*
X84999530Y-59481391D01*
X85039322Y-59610246D01*
X85068030Y-59767845D01*
X85078208Y-59839503D01*
X85093812Y-59934182D01*
X85109176Y-60003952D01*
X85125682Y-60053579D01*
X85144713Y-60087835D01*
X85167650Y-60111489D01*
X85180691Y-60120876D01*
X85239834Y-60142743D01*
X85299824Y-60132221D01*
X85359332Y-60089465D01*
X85393280Y-60044955D01*
X85423045Y-59968595D01*
X85432560Y-59883254D01*
X85422917Y-59796552D01*
X85395205Y-59716112D01*
X85350517Y-59649554D01*
X85289941Y-59604501D01*
X85237363Y-59580000D01*
X85237009Y-59403665D01*
X85236656Y-59227330D01*
X85297910Y-59238223D01*
X85416864Y-59272296D01*
X85516863Y-59330277D01*
X85596977Y-59412963D01*
X85658323Y-59521510D01*
X85702014Y-59657074D01*
X85713034Y-59711337D01*
X85726399Y-59851155D01*
X85719825Y-59989234D01*
X85694663Y-60119942D01*
X85652263Y-60237651D01*
X85593973Y-60336732D01*
X85521144Y-60411554D01*
X85475636Y-60441386D01*
X85372186Y-60483114D01*
X85259908Y-60499986D01*
X85147705Y-60491173D01*
X85044482Y-60455849D01*
X85015894Y-60439113D01*
X84941033Y-60375256D01*
X84875983Y-60291709D01*
X84828660Y-60197933D01*
X84816641Y-60158907D01*
X84800085Y-60088546D01*
X84784162Y-60004965D01*
X84771099Y-59918952D01*
X84760195Y-59838971D01*
X84746474Y-59754403D01*
X84732497Y-59692598D01*
X84716582Y-59647910D01*
X84697043Y-59614693D01*
X84672198Y-59587302D01*
X84655938Y-59574312D01*
X84598272Y-59551491D01*
X84536901Y-59553522D01*
X84483779Y-59580816D01*
X84438249Y-59640155D01*
X84405708Y-59722212D01*
X84388546Y-59817768D01*
X84388265Y-59918391D01*
X84406365Y-60015646D01*
X84423261Y-60052689D01*
X84457585Y-60101477D01*
X84499600Y-60146558D01*
X84541420Y-60179667D01*
X84575159Y-60192540D01*
X84582740Y-60194595D01*
X84591178Y-60208126D01*
X84596334Y-60238793D01*
X84598911Y-60291767D01*
X84599614Y-60372218D01*
X84599626Y-60392445D01*
X84599029Y-60469189D01*
X84594443Y-60518488D01*
X84581914Y-60544642D01*
X84557491Y-60551950D01*
X84517223Y-60544714D01*
X84457156Y-60527234D01*
X84397027Y-60503523D01*
X84303468Y-60440659D01*
X84223036Y-60352853D01*
X84159350Y-60244429D01*
X84116032Y-60119712D01*
X84109726Y-60088660D01*
X84099453Y-59999411D01*
X84095226Y-59895557D01*
X84096990Y-59788786D01*
X84104694Y-59690784D01*
X84118287Y-59613239D01*
X84157025Y-59500380D01*
X84220641Y-59385434D01*
X84300796Y-59294595D01*
X84353684Y-59255566D01*
X84455096Y-59210457D01*
X84566094Y-59191679D01*
X84679479Y-59200092D01*
G37*
G36*
X84818518Y-70101586D02*
G01*
X84875675Y-70107749D01*
X84924025Y-70120595D01*
X84975305Y-70142216D01*
X85006724Y-70158128D01*
X85104922Y-70225854D01*
X85186576Y-70314276D01*
X85252689Y-70425367D01*
X85304265Y-70561102D01*
X85342309Y-70723456D01*
X85367823Y-70914404D01*
X85373470Y-70971096D01*
X85383943Y-71056911D01*
X85395548Y-71119655D01*
X85409987Y-71165587D01*
X85428962Y-71200971D01*
X85454175Y-71232066D01*
X85492253Y-71265955D01*
X85568206Y-71303721D01*
X85649895Y-71313704D01*
X85731235Y-71296609D01*
X85806142Y-71253142D01*
X85868534Y-71184010D01*
X85892120Y-71144002D01*
X85907150Y-71103247D01*
X85915607Y-71051913D01*
X85920276Y-70978964D01*
X85921886Y-70914933D01*
X85918863Y-70858856D01*
X85908916Y-70814296D01*
X85890418Y-70769865D01*
X85846886Y-70699786D01*
X85774801Y-70634109D01*
X85684462Y-70595502D01*
X85612347Y-70577343D01*
X85612347Y-70381165D01*
X85612347Y-70184987D01*
X85695399Y-70196004D01*
X85710017Y-70198085D01*
X85851060Y-70234468D01*
X85973731Y-70297017D01*
X86076862Y-70384202D01*
X86159285Y-70494495D01*
X86219833Y-70626369D01*
X86257336Y-70778295D01*
X86270629Y-70948746D01*
X86268423Y-71029242D01*
X86246207Y-71191656D01*
X86201144Y-71334748D01*
X86134476Y-71456935D01*
X86047447Y-71556635D01*
X85941299Y-71632266D01*
X85817276Y-71682245D01*
X85676620Y-71704990D01*
X85635067Y-71706339D01*
X85493237Y-71693012D01*
X85367655Y-71651652D01*
X85259391Y-71583082D01*
X85169512Y-71488123D01*
X85099086Y-71367596D01*
X85049182Y-71222323D01*
X85040976Y-71183314D01*
X85029117Y-71110661D01*
X85017796Y-71025235D01*
X85008637Y-70938399D01*
X84996980Y-70832623D01*
X84977755Y-70725364D01*
X84951715Y-70643100D01*
X84916986Y-70581655D01*
X84871696Y-70536856D01*
X84813972Y-70504526D01*
X84759882Y-70490089D01*
X84682023Y-70495623D01*
X84606169Y-70528999D01*
X84537259Y-70587776D01*
X84480227Y-70669514D01*
X84477275Y-70675114D01*
X84462845Y-70707345D01*
X84453325Y-70742600D01*
X84447735Y-70788285D01*
X84445099Y-70851809D01*
X84444437Y-70940578D01*
X84444629Y-71006088D01*
X84446123Y-71073304D01*
X84450140Y-71120886D01*
X84457889Y-71156379D01*
X84470579Y-71187329D01*
X84489420Y-71221279D01*
X84541318Y-71293228D01*
X84607995Y-71346645D01*
X84693687Y-71380548D01*
X84762958Y-71399201D01*
X84762958Y-71594584D01*
X84763048Y-71642616D01*
X84762390Y-71712866D01*
X84757709Y-71757469D01*
X84745518Y-71781036D01*
X84722328Y-71788175D01*
X84684652Y-71783493D01*
X84629003Y-71771601D01*
X84495228Y-71728844D01*
X84375012Y-71658550D01*
X84274135Y-71562575D01*
X84193251Y-71441704D01*
X84133014Y-71296725D01*
X84094079Y-71128424D01*
X84091394Y-71108365D01*
X84085849Y-71023426D01*
X84085647Y-70922841D01*
X84090329Y-70818642D01*
X84099433Y-70722862D01*
X84112498Y-70647531D01*
X84138001Y-70562046D01*
X84199590Y-70426970D01*
X84280980Y-70309767D01*
X84378832Y-70214869D01*
X84489808Y-70146708D01*
X84497746Y-70143100D01*
X84552629Y-70120812D01*
X84602738Y-70107761D01*
X84660529Y-70101609D01*
X84738456Y-70100017D01*
X84740820Y-70100016D01*
X84818518Y-70101586D01*
G37*
G36*
X85151252Y-72525016D02*
G01*
X86177637Y-72525016D01*
X86264012Y-72568058D01*
X86337707Y-72616163D01*
X86412980Y-72698352D01*
X86464979Y-72799907D01*
X86469564Y-72819655D01*
X86473525Y-72852864D01*
X86476857Y-72901553D01*
X86479606Y-72967869D01*
X86481812Y-73053962D01*
X86483521Y-73161979D01*
X86484774Y-73294070D01*
X86485616Y-73452383D01*
X86486090Y-73639067D01*
X86486238Y-73856270D01*
X86486227Y-73958886D01*
X86486109Y-74150640D01*
X86485802Y-74313571D01*
X86485234Y-74450278D01*
X86484333Y-74563364D01*
X86483026Y-74655429D01*
X86481242Y-74729075D01*
X86478909Y-74786902D01*
X86475954Y-74831512D01*
X86472305Y-74865505D01*
X86467891Y-74891484D01*
X86462638Y-74912049D01*
X86456475Y-74929801D01*
X86452406Y-74939652D01*
X86408001Y-75012121D01*
X86344130Y-75080630D01*
X86270586Y-75136124D01*
X86197165Y-75169547D01*
X86193769Y-75170394D01*
X86164989Y-75174562D01*
X86117479Y-75178014D01*
X86049497Y-75180777D01*
X85959301Y-75182872D01*
X85845149Y-75184323D01*
X85705299Y-75185155D01*
X85538010Y-75185389D01*
X85341540Y-75185051D01*
X85173155Y-75184393D01*
X85114148Y-75184162D01*
X84462491Y-75181070D01*
X84101415Y-75179356D01*
X84024380Y-75134073D01*
X83970566Y-75096861D01*
X83891544Y-75013705D01*
X83838622Y-74913956D01*
X83835553Y-74903205D01*
X83831354Y-74878088D01*
X83827849Y-74840821D01*
X83824998Y-74789127D01*
X83822764Y-74720724D01*
X83821108Y-74633334D01*
X83819989Y-74524676D01*
X83819370Y-74392470D01*
X83819211Y-74234436D01*
X83819473Y-74048296D01*
X83819801Y-73937942D01*
X84110975Y-73937942D01*
X84116248Y-74003657D01*
X84137210Y-74114153D01*
X84170601Y-74230763D01*
X84212725Y-74341193D01*
X84259886Y-74433146D01*
X84282459Y-74483804D01*
X84285028Y-74548767D01*
X84283438Y-74599713D01*
X84301657Y-74669647D01*
X84340951Y-74722304D01*
X84396251Y-74753839D01*
X84462491Y-74760405D01*
X84534603Y-74738158D01*
X84576692Y-74708970D01*
X84606827Y-74660386D01*
X84615948Y-74591318D01*
X84610460Y-74536773D01*
X84583899Y-74480728D01*
X84532764Y-74443077D01*
X84454244Y-74420855D01*
X84420450Y-74411821D01*
X84395264Y-74390003D01*
X84375565Y-74346291D01*
X84370517Y-74327683D01*
X84701335Y-74327683D01*
X84708623Y-74467919D01*
X84741316Y-74594031D01*
X84798415Y-74703382D01*
X84878921Y-74793334D01*
X84981836Y-74861249D01*
X84990836Y-74865669D01*
X85039495Y-74888300D01*
X85079169Y-74901920D01*
X85120256Y-74908285D01*
X85173155Y-74909153D01*
X85248263Y-74906282D01*
X85344771Y-74898512D01*
X85464951Y-74875232D01*
X85577163Y-74833929D01*
X85694767Y-74770542D01*
X85735866Y-74744526D01*
X85773040Y-74716840D01*
X85782224Y-74702409D01*
X85763146Y-74701950D01*
X85715532Y-74716178D01*
X85665487Y-74727209D01*
X85580870Y-74733556D01*
X85465337Y-74733499D01*
X85394308Y-74731798D01*
X85302449Y-74729902D01*
X85233672Y-74729130D01*
X85182066Y-74729563D01*
X85141719Y-74731282D01*
X85106719Y-74734368D01*
X85071155Y-74738903D01*
X85056238Y-74740872D01*
X85039583Y-74741479D01*
X85011683Y-74742495D01*
X84978528Y-74730582D01*
X84940480Y-74700323D01*
X84906223Y-74665074D01*
X84889410Y-74628602D01*
X84885466Y-74576695D01*
X84885545Y-74574983D01*
X84991640Y-74574983D01*
X84991786Y-74578822D01*
X85007316Y-74610867D01*
X85039583Y-74627923D01*
X85075951Y-74626720D01*
X85103784Y-74603990D01*
X85111129Y-74583910D01*
X85105443Y-74548979D01*
X85080844Y-74525230D01*
X85046416Y-74519197D01*
X85011241Y-74537414D01*
X85002116Y-74548619D01*
X84991640Y-74574983D01*
X84885545Y-74574983D01*
X84887139Y-74540492D01*
X84899979Y-74495995D01*
X84930757Y-74456930D01*
X84964283Y-74429156D01*
X85002705Y-74415158D01*
X85058763Y-74411639D01*
X85065930Y-74411665D01*
X85117208Y-74415395D01*
X85151037Y-74428976D01*
X85180900Y-74457470D01*
X85185004Y-74462416D01*
X85210077Y-74501983D01*
X85220321Y-74535463D01*
X85224478Y-74553528D01*
X85254814Y-74579197D01*
X85315055Y-74594447D01*
X85405799Y-74599485D01*
X85530851Y-74589788D01*
X85681875Y-74549422D01*
X85823968Y-74477646D01*
X85957188Y-74374436D01*
X85985829Y-74347015D01*
X86088549Y-74225683D01*
X86160513Y-74095494D01*
X86202858Y-73953923D01*
X86216720Y-73798448D01*
X86216630Y-73779983D01*
X86210547Y-73666107D01*
X86192788Y-73564705D01*
X86160370Y-73463174D01*
X86110310Y-73348911D01*
X86105986Y-73339865D01*
X86073230Y-73267594D01*
X86054087Y-73214911D01*
X86046199Y-73173880D01*
X86047206Y-73136564D01*
X86048383Y-73103950D01*
X86031846Y-73036716D01*
X85992665Y-72983812D01*
X85935574Y-72953019D01*
X85868335Y-72946926D01*
X85805525Y-72964606D01*
X85755566Y-73001641D01*
X85722153Y-73052297D01*
X85708976Y-73110840D01*
X85719728Y-73171536D01*
X85758100Y-73228652D01*
X85768011Y-73238019D01*
X85805654Y-73266009D01*
X85835689Y-73278135D01*
X85853987Y-73279256D01*
X85897898Y-73282218D01*
X85930069Y-73298156D01*
X85956039Y-73344214D01*
X85974053Y-73420879D01*
X85984319Y-73528741D01*
X85984986Y-73543167D01*
X85979315Y-73700404D01*
X85948191Y-73840901D01*
X85890635Y-73969251D01*
X85855071Y-74024400D01*
X85773055Y-74117944D01*
X85677774Y-74192442D01*
X85573960Y-74246243D01*
X85466346Y-74277695D01*
X85359663Y-74285147D01*
X85258644Y-74266948D01*
X85168021Y-74221446D01*
X85118322Y-74171265D01*
X85076180Y-74092537D01*
X85050437Y-73997000D01*
X85042886Y-73891624D01*
X85055319Y-73783380D01*
X85062075Y-73748029D01*
X85067197Y-73707335D01*
X85065815Y-73688152D01*
X85059207Y-73687953D01*
X85031576Y-73699768D01*
X84991846Y-73723519D01*
X84952879Y-73753351D01*
X84877758Y-73834073D01*
X84811018Y-73935969D01*
X84757275Y-74051381D01*
X84721146Y-74172650D01*
X84720450Y-74175962D01*
X84701335Y-74327683D01*
X84370517Y-74327683D01*
X84363779Y-74302841D01*
X84351522Y-74236157D01*
X84343319Y-74166623D01*
X84342127Y-74148894D01*
X84348018Y-74008139D01*
X84379506Y-73874519D01*
X84433696Y-73751619D01*
X84507690Y-73643024D01*
X84598592Y-73552320D01*
X84703504Y-73483093D01*
X84819530Y-73438927D01*
X84943774Y-73423408D01*
X85011308Y-73427060D01*
X85110943Y-73451181D01*
X85187670Y-73498307D01*
X85241979Y-73568953D01*
X85274359Y-73663637D01*
X85285300Y-73782873D01*
X85285303Y-73784116D01*
X85283231Y-73853154D01*
X85277598Y-73916818D01*
X85269604Y-73961469D01*
X85267595Y-73968760D01*
X85260160Y-74005919D01*
X85261141Y-74025042D01*
X85265473Y-74026315D01*
X85290231Y-74016343D01*
X85328220Y-73991272D01*
X85372057Y-73956760D01*
X85414363Y-73918464D01*
X85447753Y-73882039D01*
X85476468Y-73842257D01*
X85534939Y-73740403D01*
X85582855Y-73629225D01*
X85613130Y-73524059D01*
X85616299Y-73506554D01*
X85626300Y-73397233D01*
X85622911Y-73282239D01*
X85607059Y-73173762D01*
X85579673Y-73083993D01*
X85535797Y-73009218D01*
X85471846Y-72934483D01*
X85398143Y-72870549D01*
X85324724Y-72827515D01*
X85278151Y-72811257D01*
X85159727Y-72791865D01*
X85029647Y-72796325D01*
X84894143Y-72823605D01*
X84759451Y-72872669D01*
X84631803Y-72942483D01*
X84592512Y-72968798D01*
X84568983Y-72987220D01*
X84569369Y-72993634D01*
X84591447Y-72990697D01*
X84664490Y-72979698D01*
X84762295Y-72972265D01*
X84866311Y-72969906D01*
X84963754Y-72972884D01*
X85041842Y-72981461D01*
X85092341Y-72989703D01*
X85137813Y-72993182D01*
X85171438Y-72988112D01*
X85204442Y-72973976D01*
X85236498Y-72960913D01*
X85300810Y-72955063D01*
X85358079Y-72973839D01*
X85404387Y-73011816D01*
X85435819Y-73063565D01*
X85448455Y-73123661D01*
X85438378Y-73186676D01*
X85401671Y-73247184D01*
X85375908Y-73273129D01*
X85337973Y-73294694D01*
X85288031Y-73300157D01*
X85283027Y-73300019D01*
X85276660Y-73299843D01*
X85205348Y-73282332D01*
X85149087Y-73241635D01*
X85115322Y-73182811D01*
X85104613Y-73158625D01*
X85080963Y-73136381D01*
X85041154Y-73122529D01*
X84979739Y-73115377D01*
X84891270Y-73113234D01*
X84812639Y-73118240D01*
X84675852Y-73150565D01*
X84544752Y-73209684D01*
X84423653Y-73291860D01*
X84316868Y-73393360D01*
X84228708Y-73510447D01*
X84163488Y-73639386D01*
X84125519Y-73776442D01*
X84119779Y-73816680D01*
X84113079Y-73883935D01*
X84110975Y-73937942D01*
X83819801Y-73937942D01*
X83820117Y-73831768D01*
X83820554Y-73709541D01*
X83821289Y-73519186D01*
X83822060Y-73357512D01*
X83822961Y-73221979D01*
X83824058Y-73112238D01*
X85226299Y-73112238D01*
X85227218Y-73149550D01*
X85253043Y-73178420D01*
X85283027Y-73188698D01*
X85311205Y-73177525D01*
X85330109Y-73149724D01*
X85331139Y-73114588D01*
X85315731Y-73084195D01*
X85288911Y-73067844D01*
X85255705Y-73074834D01*
X85249971Y-73078804D01*
X85226299Y-73112238D01*
X83824058Y-73112238D01*
X83824080Y-73110047D01*
X83825510Y-73019175D01*
X83827341Y-72946823D01*
X83829665Y-72890450D01*
X83832573Y-72847517D01*
X83836155Y-72815483D01*
X83840503Y-72791808D01*
X83845707Y-72773951D01*
X83851860Y-72759371D01*
X83859051Y-72745530D01*
X83865618Y-72734046D01*
X83905031Y-72677545D01*
X83948890Y-72627934D01*
X83963246Y-72614064D01*
X83982837Y-72595735D01*
X84002412Y-72580109D01*
X84024485Y-72566969D01*
X84051571Y-72556101D01*
X84086184Y-72547290D01*
X84130839Y-72540320D01*
X84188048Y-72534975D01*
X84260327Y-72531042D01*
X84350189Y-72528304D01*
X84460150Y-72526546D01*
X84592722Y-72525554D01*
X84750420Y-72525111D01*
X84935759Y-72525004D01*
X85151252Y-72525016D01*
G37*
%TD*%
M02*
