%TF.GenerationSoftware,KiCad,Pcbnew,8.0.3*%
%TF.CreationDate,2024-08-02T11:09:55+07:00*%
%TF.ProjectId,waterleak V.1,77617465-726c-4656-916b-20562e312e6b,rev?*%
%TF.SameCoordinates,Original*%
%TF.FileFunction,Legend,Top*%
%TF.FilePolarity,Positive*%
%FSLAX46Y46*%
G04 Gerber Fmt 4.6, Leading zero omitted, Abs format (unit mm)*
G04 Created by KiCad (PCBNEW 8.0.3) date 2024-08-02 11:09:55*
%MOMM*%
%LPD*%
G01*
G04 APERTURE LIST*
%ADD10C,0.100000*%
%ADD11C,0.200000*%
%ADD12C,0.120000*%
%ADD13C,0.000000*%
G04 APERTURE END LIST*
D10*
X82980074Y-61249942D02*
X82951503Y-61221371D01*
X82951503Y-61221371D02*
X82894360Y-61135657D01*
X82894360Y-61135657D02*
X82865789Y-61078514D01*
X82865789Y-61078514D02*
X82837217Y-60992800D01*
X82837217Y-60992800D02*
X82808646Y-60849942D01*
X82808646Y-60849942D02*
X82808646Y-60735657D01*
X82808646Y-60735657D02*
X82837217Y-60592800D01*
X82837217Y-60592800D02*
X82865789Y-60507085D01*
X82865789Y-60507085D02*
X82894360Y-60449942D01*
X82894360Y-60449942D02*
X82951503Y-60364228D01*
X82951503Y-60364228D02*
X82980074Y-60335657D01*
X83208646Y-60792800D02*
X83665789Y-60792800D01*
X83437217Y-61021371D02*
X83437217Y-60564228D01*
X83894360Y-61249942D02*
X83922931Y-61221371D01*
X83922931Y-61221371D02*
X83980074Y-61135657D01*
X83980074Y-61135657D02*
X84008646Y-61078514D01*
X84008646Y-61078514D02*
X84037217Y-60992800D01*
X84037217Y-60992800D02*
X84065788Y-60849942D01*
X84065788Y-60849942D02*
X84065788Y-60735657D01*
X84065788Y-60735657D02*
X84037217Y-60592800D01*
X84037217Y-60592800D02*
X84008646Y-60507085D01*
X84008646Y-60507085D02*
X83980074Y-60449942D01*
X83980074Y-60449942D02*
X83922931Y-60364228D01*
X83922931Y-60364228D02*
X83894360Y-60335657D01*
X85894360Y-61249942D02*
X85865789Y-61221371D01*
X85865789Y-61221371D02*
X85808646Y-61135657D01*
X85808646Y-61135657D02*
X85780075Y-61078514D01*
X85780075Y-61078514D02*
X85751503Y-60992800D01*
X85751503Y-60992800D02*
X85722932Y-60849942D01*
X85722932Y-60849942D02*
X85722932Y-60735657D01*
X85722932Y-60735657D02*
X85751503Y-60592800D01*
X85751503Y-60592800D02*
X85780075Y-60507085D01*
X85780075Y-60507085D02*
X85808646Y-60449942D01*
X85808646Y-60449942D02*
X85865789Y-60364228D01*
X85865789Y-60364228D02*
X85894360Y-60335657D01*
X86122932Y-60792800D02*
X86580075Y-60792800D01*
X86808646Y-61249942D02*
X86837217Y-61221371D01*
X86837217Y-61221371D02*
X86894360Y-61135657D01*
X86894360Y-61135657D02*
X86922932Y-61078514D01*
X86922932Y-61078514D02*
X86951503Y-60992800D01*
X86951503Y-60992800D02*
X86980074Y-60849942D01*
X86980074Y-60849942D02*
X86980074Y-60735657D01*
X86980074Y-60735657D02*
X86951503Y-60592800D01*
X86951503Y-60592800D02*
X86922932Y-60507085D01*
X86922932Y-60507085D02*
X86894360Y-60449942D01*
X86894360Y-60449942D02*
X86837217Y-60364228D01*
X86837217Y-60364228D02*
X86808646Y-60335657D01*
X80622931Y-73949942D02*
X80565789Y-73921371D01*
X80565789Y-73921371D02*
X80480074Y-73921371D01*
X80480074Y-73921371D02*
X80394360Y-73949942D01*
X80394360Y-73949942D02*
X80337217Y-74007085D01*
X80337217Y-74007085D02*
X80308646Y-74064228D01*
X80308646Y-74064228D02*
X80280074Y-74178514D01*
X80280074Y-74178514D02*
X80280074Y-74264228D01*
X80280074Y-74264228D02*
X80308646Y-74378514D01*
X80308646Y-74378514D02*
X80337217Y-74435657D01*
X80337217Y-74435657D02*
X80394360Y-74492800D01*
X80394360Y-74492800D02*
X80480074Y-74521371D01*
X80480074Y-74521371D02*
X80537217Y-74521371D01*
X80537217Y-74521371D02*
X80622931Y-74492800D01*
X80622931Y-74492800D02*
X80651503Y-74464228D01*
X80651503Y-74464228D02*
X80651503Y-74264228D01*
X80651503Y-74264228D02*
X80537217Y-74264228D01*
X80908646Y-74521371D02*
X80908646Y-73921371D01*
X80908646Y-73921371D02*
X81251503Y-74521371D01*
X81251503Y-74521371D02*
X81251503Y-73921371D01*
X81537217Y-74521371D02*
X81537217Y-73921371D01*
X81537217Y-73921371D02*
X81680074Y-73921371D01*
X81680074Y-73921371D02*
X81765788Y-73949942D01*
X81765788Y-73949942D02*
X81822931Y-74007085D01*
X81822931Y-74007085D02*
X81851502Y-74064228D01*
X81851502Y-74064228D02*
X81880074Y-74178514D01*
X81880074Y-74178514D02*
X81880074Y-74264228D01*
X81880074Y-74264228D02*
X81851502Y-74378514D01*
X81851502Y-74378514D02*
X81822931Y-74435657D01*
X81822931Y-74435657D02*
X81765788Y-74492800D01*
X81765788Y-74492800D02*
X81680074Y-74521371D01*
X81680074Y-74521371D02*
X81537217Y-74521371D01*
X84080074Y-73921371D02*
X84194360Y-73921371D01*
X84194360Y-73921371D02*
X84251503Y-73949942D01*
X84251503Y-73949942D02*
X84308646Y-74007085D01*
X84308646Y-74007085D02*
X84337217Y-74121371D01*
X84337217Y-74121371D02*
X84337217Y-74321371D01*
X84337217Y-74321371D02*
X84308646Y-74435657D01*
X84308646Y-74435657D02*
X84251503Y-74492800D01*
X84251503Y-74492800D02*
X84194360Y-74521371D01*
X84194360Y-74521371D02*
X84080074Y-74521371D01*
X84080074Y-74521371D02*
X84022932Y-74492800D01*
X84022932Y-74492800D02*
X83965789Y-74435657D01*
X83965789Y-74435657D02*
X83937217Y-74321371D01*
X83937217Y-74321371D02*
X83937217Y-74121371D01*
X83937217Y-74121371D02*
X83965789Y-74007085D01*
X83965789Y-74007085D02*
X84022932Y-73949942D01*
X84022932Y-73949942D02*
X84080074Y-73921371D01*
X84594360Y-73921371D02*
X84594360Y-74407085D01*
X84594360Y-74407085D02*
X84622931Y-74464228D01*
X84622931Y-74464228D02*
X84651503Y-74492800D01*
X84651503Y-74492800D02*
X84708645Y-74521371D01*
X84708645Y-74521371D02*
X84822931Y-74521371D01*
X84822931Y-74521371D02*
X84880074Y-74492800D01*
X84880074Y-74492800D02*
X84908645Y-74464228D01*
X84908645Y-74464228D02*
X84937217Y-74407085D01*
X84937217Y-74407085D02*
X84937217Y-73921371D01*
X85137216Y-73921371D02*
X85480074Y-73921371D01*
X85308645Y-74521371D02*
X85308645Y-73921371D01*
X87508646Y-74292800D02*
X87965789Y-74292800D01*
X87737217Y-74521371D02*
X87737217Y-74064228D01*
X88537217Y-73921371D02*
X88251503Y-73921371D01*
X88251503Y-73921371D02*
X88222931Y-74207085D01*
X88222931Y-74207085D02*
X88251503Y-74178514D01*
X88251503Y-74178514D02*
X88308646Y-74149942D01*
X88308646Y-74149942D02*
X88451503Y-74149942D01*
X88451503Y-74149942D02*
X88508646Y-74178514D01*
X88508646Y-74178514D02*
X88537217Y-74207085D01*
X88537217Y-74207085D02*
X88565788Y-74264228D01*
X88565788Y-74264228D02*
X88565788Y-74407085D01*
X88565788Y-74407085D02*
X88537217Y-74464228D01*
X88537217Y-74464228D02*
X88508646Y-74492800D01*
X88508646Y-74492800D02*
X88451503Y-74521371D01*
X88451503Y-74521371D02*
X88308646Y-74521371D01*
X88308646Y-74521371D02*
X88251503Y-74492800D01*
X88251503Y-74492800D02*
X88222931Y-74464228D01*
X88737217Y-73921371D02*
X88937217Y-74521371D01*
X88937217Y-74521371D02*
X89137217Y-73921371D01*
X96255405Y-72914285D02*
X96855405Y-72771428D01*
X96855405Y-72771428D02*
X96426834Y-72657142D01*
X96426834Y-72657142D02*
X96855405Y-72542857D01*
X96855405Y-72542857D02*
X96255405Y-72400000D01*
X96683976Y-72200000D02*
X96683976Y-71914286D01*
X96855405Y-72257143D02*
X96255405Y-72057143D01*
X96255405Y-72057143D02*
X96855405Y-71857143D01*
X96255405Y-71742857D02*
X96255405Y-71400000D01*
X96855405Y-71571428D02*
X96255405Y-71571428D01*
X96541119Y-71199999D02*
X96541119Y-70999999D01*
X96855405Y-70914285D02*
X96855405Y-71199999D01*
X96855405Y-71199999D02*
X96255405Y-71199999D01*
X96255405Y-71199999D02*
X96255405Y-70914285D01*
X96855405Y-70314285D02*
X96569691Y-70514285D01*
X96855405Y-70657142D02*
X96255405Y-70657142D01*
X96255405Y-70657142D02*
X96255405Y-70428571D01*
X96255405Y-70428571D02*
X96283976Y-70371428D01*
X96283976Y-70371428D02*
X96312548Y-70342857D01*
X96312548Y-70342857D02*
X96369691Y-70314285D01*
X96369691Y-70314285D02*
X96455405Y-70314285D01*
X96455405Y-70314285D02*
X96512548Y-70342857D01*
X96512548Y-70342857D02*
X96541119Y-70371428D01*
X96541119Y-70371428D02*
X96569691Y-70428571D01*
X96569691Y-70428571D02*
X96569691Y-70657142D01*
X96855405Y-69314285D02*
X96855405Y-69599999D01*
X96855405Y-69599999D02*
X96255405Y-69599999D01*
X96541119Y-69114285D02*
X96541119Y-68914285D01*
X96855405Y-68828571D02*
X96855405Y-69114285D01*
X96855405Y-69114285D02*
X96255405Y-69114285D01*
X96255405Y-69114285D02*
X96255405Y-68828571D01*
X96683976Y-68600000D02*
X96683976Y-68314286D01*
X96855405Y-68657143D02*
X96255405Y-68457143D01*
X96255405Y-68457143D02*
X96855405Y-68257143D01*
X96855405Y-68057142D02*
X96255405Y-68057142D01*
X96855405Y-67714285D02*
X96512548Y-67971428D01*
X96255405Y-67714285D02*
X96598262Y-68057142D01*
X96826834Y-67028571D02*
X96855405Y-66942857D01*
X96855405Y-66942857D02*
X96855405Y-66799999D01*
X96855405Y-66799999D02*
X96826834Y-66742857D01*
X96826834Y-66742857D02*
X96798262Y-66714285D01*
X96798262Y-66714285D02*
X96741119Y-66685714D01*
X96741119Y-66685714D02*
X96683976Y-66685714D01*
X96683976Y-66685714D02*
X96626834Y-66714285D01*
X96626834Y-66714285D02*
X96598262Y-66742857D01*
X96598262Y-66742857D02*
X96569691Y-66799999D01*
X96569691Y-66799999D02*
X96541119Y-66914285D01*
X96541119Y-66914285D02*
X96512548Y-66971428D01*
X96512548Y-66971428D02*
X96483976Y-66999999D01*
X96483976Y-66999999D02*
X96426834Y-67028571D01*
X96426834Y-67028571D02*
X96369691Y-67028571D01*
X96369691Y-67028571D02*
X96312548Y-66999999D01*
X96312548Y-66999999D02*
X96283976Y-66971428D01*
X96283976Y-66971428D02*
X96255405Y-66914285D01*
X96255405Y-66914285D02*
X96255405Y-66771428D01*
X96255405Y-66771428D02*
X96283976Y-66685714D01*
X96541119Y-66428570D02*
X96541119Y-66228570D01*
X96855405Y-66142856D02*
X96855405Y-66428570D01*
X96855405Y-66428570D02*
X96255405Y-66428570D01*
X96255405Y-66428570D02*
X96255405Y-66142856D01*
X96855405Y-65885713D02*
X96255405Y-65885713D01*
X96255405Y-65885713D02*
X96855405Y-65542856D01*
X96855405Y-65542856D02*
X96255405Y-65542856D01*
X96826834Y-65285714D02*
X96855405Y-65200000D01*
X96855405Y-65200000D02*
X96855405Y-65057142D01*
X96855405Y-65057142D02*
X96826834Y-65000000D01*
X96826834Y-65000000D02*
X96798262Y-64971428D01*
X96798262Y-64971428D02*
X96741119Y-64942857D01*
X96741119Y-64942857D02*
X96683976Y-64942857D01*
X96683976Y-64942857D02*
X96626834Y-64971428D01*
X96626834Y-64971428D02*
X96598262Y-65000000D01*
X96598262Y-65000000D02*
X96569691Y-65057142D01*
X96569691Y-65057142D02*
X96541119Y-65171428D01*
X96541119Y-65171428D02*
X96512548Y-65228571D01*
X96512548Y-65228571D02*
X96483976Y-65257142D01*
X96483976Y-65257142D02*
X96426834Y-65285714D01*
X96426834Y-65285714D02*
X96369691Y-65285714D01*
X96369691Y-65285714D02*
X96312548Y-65257142D01*
X96312548Y-65257142D02*
X96283976Y-65228571D01*
X96283976Y-65228571D02*
X96255405Y-65171428D01*
X96255405Y-65171428D02*
X96255405Y-65028571D01*
X96255405Y-65028571D02*
X96283976Y-64942857D01*
X96255405Y-64571428D02*
X96255405Y-64457142D01*
X96255405Y-64457142D02*
X96283976Y-64399999D01*
X96283976Y-64399999D02*
X96341119Y-64342856D01*
X96341119Y-64342856D02*
X96455405Y-64314285D01*
X96455405Y-64314285D02*
X96655405Y-64314285D01*
X96655405Y-64314285D02*
X96769691Y-64342856D01*
X96769691Y-64342856D02*
X96826834Y-64399999D01*
X96826834Y-64399999D02*
X96855405Y-64457142D01*
X96855405Y-64457142D02*
X96855405Y-64571428D01*
X96855405Y-64571428D02*
X96826834Y-64628571D01*
X96826834Y-64628571D02*
X96769691Y-64685713D01*
X96769691Y-64685713D02*
X96655405Y-64714285D01*
X96655405Y-64714285D02*
X96455405Y-64714285D01*
X96455405Y-64714285D02*
X96341119Y-64685713D01*
X96341119Y-64685713D02*
X96283976Y-64628571D01*
X96283976Y-64628571D02*
X96255405Y-64571428D01*
X96855405Y-63714285D02*
X96569691Y-63914285D01*
X96855405Y-64057142D02*
X96255405Y-64057142D01*
X96255405Y-64057142D02*
X96255405Y-63828571D01*
X96255405Y-63828571D02*
X96283976Y-63771428D01*
X96283976Y-63771428D02*
X96312548Y-63742857D01*
X96312548Y-63742857D02*
X96369691Y-63714285D01*
X96369691Y-63714285D02*
X96455405Y-63714285D01*
X96455405Y-63714285D02*
X96512548Y-63742857D01*
X96512548Y-63742857D02*
X96541119Y-63771428D01*
X96541119Y-63771428D02*
X96569691Y-63828571D01*
X96569691Y-63828571D02*
X96569691Y-64057142D01*
X97764228Y-70642855D02*
X97792800Y-70671427D01*
X97792800Y-70671427D02*
X97821371Y-70757141D01*
X97821371Y-70757141D02*
X97821371Y-70814284D01*
X97821371Y-70814284D02*
X97792800Y-70899998D01*
X97792800Y-70899998D02*
X97735657Y-70957141D01*
X97735657Y-70957141D02*
X97678514Y-70985712D01*
X97678514Y-70985712D02*
X97564228Y-71014284D01*
X97564228Y-71014284D02*
X97478514Y-71014284D01*
X97478514Y-71014284D02*
X97364228Y-70985712D01*
X97364228Y-70985712D02*
X97307085Y-70957141D01*
X97307085Y-70957141D02*
X97249942Y-70899998D01*
X97249942Y-70899998D02*
X97221371Y-70814284D01*
X97221371Y-70814284D02*
X97221371Y-70757141D01*
X97221371Y-70757141D02*
X97249942Y-70671427D01*
X97249942Y-70671427D02*
X97278514Y-70642855D01*
X97221371Y-70271427D02*
X97221371Y-70157141D01*
X97221371Y-70157141D02*
X97249942Y-70099998D01*
X97249942Y-70099998D02*
X97307085Y-70042855D01*
X97307085Y-70042855D02*
X97421371Y-70014284D01*
X97421371Y-70014284D02*
X97621371Y-70014284D01*
X97621371Y-70014284D02*
X97735657Y-70042855D01*
X97735657Y-70042855D02*
X97792800Y-70099998D01*
X97792800Y-70099998D02*
X97821371Y-70157141D01*
X97821371Y-70157141D02*
X97821371Y-70271427D01*
X97821371Y-70271427D02*
X97792800Y-70328570D01*
X97792800Y-70328570D02*
X97735657Y-70385712D01*
X97735657Y-70385712D02*
X97621371Y-70414284D01*
X97621371Y-70414284D02*
X97421371Y-70414284D01*
X97421371Y-70414284D02*
X97307085Y-70385712D01*
X97307085Y-70385712D02*
X97249942Y-70328570D01*
X97249942Y-70328570D02*
X97221371Y-70271427D01*
X97821371Y-69757141D02*
X97221371Y-69757141D01*
X97221371Y-69757141D02*
X97821371Y-69414284D01*
X97821371Y-69414284D02*
X97221371Y-69414284D01*
X97221371Y-69214285D02*
X97221371Y-68871428D01*
X97821371Y-69042856D02*
X97221371Y-69042856D01*
X97821371Y-68328570D02*
X97535657Y-68528570D01*
X97821371Y-68671427D02*
X97221371Y-68671427D01*
X97221371Y-68671427D02*
X97221371Y-68442856D01*
X97221371Y-68442856D02*
X97249942Y-68385713D01*
X97249942Y-68385713D02*
X97278514Y-68357142D01*
X97278514Y-68357142D02*
X97335657Y-68328570D01*
X97335657Y-68328570D02*
X97421371Y-68328570D01*
X97421371Y-68328570D02*
X97478514Y-68357142D01*
X97478514Y-68357142D02*
X97507085Y-68385713D01*
X97507085Y-68385713D02*
X97535657Y-68442856D01*
X97535657Y-68442856D02*
X97535657Y-68671427D01*
X97221371Y-67957142D02*
X97221371Y-67842856D01*
X97221371Y-67842856D02*
X97249942Y-67785713D01*
X97249942Y-67785713D02*
X97307085Y-67728570D01*
X97307085Y-67728570D02*
X97421371Y-67699999D01*
X97421371Y-67699999D02*
X97621371Y-67699999D01*
X97621371Y-67699999D02*
X97735657Y-67728570D01*
X97735657Y-67728570D02*
X97792800Y-67785713D01*
X97792800Y-67785713D02*
X97821371Y-67842856D01*
X97821371Y-67842856D02*
X97821371Y-67957142D01*
X97821371Y-67957142D02*
X97792800Y-68014285D01*
X97792800Y-68014285D02*
X97735657Y-68071427D01*
X97735657Y-68071427D02*
X97621371Y-68099999D01*
X97621371Y-68099999D02*
X97421371Y-68099999D01*
X97421371Y-68099999D02*
X97307085Y-68071427D01*
X97307085Y-68071427D02*
X97249942Y-68014285D01*
X97249942Y-68014285D02*
X97221371Y-67957142D01*
X97821371Y-67157142D02*
X97821371Y-67442856D01*
X97821371Y-67442856D02*
X97221371Y-67442856D01*
X97821371Y-66671428D02*
X97821371Y-66957142D01*
X97821371Y-66957142D02*
X97221371Y-66957142D01*
X97507085Y-66471428D02*
X97507085Y-66271428D01*
X97821371Y-66185714D02*
X97821371Y-66471428D01*
X97821371Y-66471428D02*
X97221371Y-66471428D01*
X97221371Y-66471428D02*
X97221371Y-66185714D01*
X97821371Y-65585714D02*
X97535657Y-65785714D01*
X97821371Y-65928571D02*
X97221371Y-65928571D01*
X97221371Y-65928571D02*
X97221371Y-65700000D01*
X97221371Y-65700000D02*
X97249942Y-65642857D01*
X97249942Y-65642857D02*
X97278514Y-65614286D01*
X97278514Y-65614286D02*
X97335657Y-65585714D01*
X97335657Y-65585714D02*
X97421371Y-65585714D01*
X97421371Y-65585714D02*
X97478514Y-65614286D01*
X97478514Y-65614286D02*
X97507085Y-65642857D01*
X97507085Y-65642857D02*
X97535657Y-65700000D01*
X97535657Y-65700000D02*
X97535657Y-65928571D01*
D11*
G36*
X87374795Y-65620216D02*
G01*
X87414492Y-65623385D01*
X87453815Y-65629595D01*
X87493901Y-65641239D01*
X87529777Y-65660279D01*
X87560296Y-65687307D01*
X87583392Y-65718810D01*
X87601115Y-65754741D01*
X87612274Y-65792923D01*
X87616868Y-65833356D01*
X87617000Y-65841713D01*
X87613531Y-65883479D01*
X87603127Y-65921825D01*
X87583130Y-65960877D01*
X87561508Y-65988259D01*
X87529988Y-66015260D01*
X87490921Y-66036863D01*
X87450547Y-66051338D01*
X87411342Y-66060456D01*
X87390147Y-66063877D01*
X87425292Y-66082939D01*
X87454432Y-66104128D01*
X87483123Y-66133197D01*
X87510821Y-66166425D01*
X87534902Y-66199887D01*
X87542750Y-66211790D01*
X87683043Y-66432000D01*
X87548807Y-66432000D01*
X87442317Y-66263570D01*
X87419993Y-66229266D01*
X87397331Y-66195783D01*
X87373160Y-66162206D01*
X87365332Y-66152000D01*
X87338355Y-66120839D01*
X87311208Y-66097875D01*
X87274901Y-66079997D01*
X87262554Y-66076382D01*
X87222328Y-66072718D01*
X87203155Y-66072474D01*
X87079470Y-66072474D01*
X87079470Y-66432000D01*
X86972980Y-66432000D01*
X86972980Y-65981811D01*
X87079470Y-65981811D01*
X87308667Y-65981811D01*
X87351231Y-65980304D01*
X87390865Y-65975163D01*
X87422973Y-65966375D01*
X87459268Y-65946347D01*
X87485695Y-65917136D01*
X87502465Y-65879358D01*
X87507188Y-65843277D01*
X87501335Y-65802519D01*
X87483777Y-65767586D01*
X87465569Y-65747533D01*
X87431387Y-65726063D01*
X87390416Y-65714278D01*
X87350851Y-65710154D01*
X87334460Y-65709822D01*
X87079470Y-65709822D01*
X87079470Y-65981811D01*
X86972980Y-65981811D01*
X86972980Y-65619159D01*
X87330161Y-65619159D01*
X87374795Y-65620216D01*
G37*
G36*
X88155311Y-66144379D02*
G01*
X88264145Y-66144379D01*
X88264145Y-66235042D01*
X88155311Y-66235042D01*
X88155311Y-66432000D01*
X88056441Y-66432000D01*
X88056441Y-66235042D01*
X87706881Y-66235042D01*
X87706881Y-66144379D01*
X87804187Y-66144379D01*
X88056441Y-66144379D01*
X88056441Y-65778992D01*
X87804187Y-66144379D01*
X87706881Y-66144379D01*
X88074613Y-65619159D01*
X88155311Y-65619159D01*
X88155311Y-66144379D01*
G37*
G36*
X79499958Y-67719159D02*
G01*
X79606644Y-67719159D01*
X79606644Y-68188106D01*
X79605675Y-68232202D01*
X79602769Y-68272754D01*
X79596931Y-68315585D01*
X79587030Y-68358626D01*
X79579093Y-68382327D01*
X79560103Y-68420657D01*
X79534127Y-68454751D01*
X79505172Y-68481502D01*
X79479833Y-68499369D01*
X79441181Y-68519116D01*
X79402773Y-68531766D01*
X79360083Y-68540097D01*
X79320083Y-68543799D01*
X79291668Y-68544505D01*
X79250686Y-68543124D01*
X79206519Y-68538023D01*
X79166280Y-68529163D01*
X79125101Y-68514435D01*
X79106434Y-68505230D01*
X79073046Y-68483395D01*
X79041616Y-68453575D01*
X79016677Y-68418191D01*
X79003657Y-68391511D01*
X78990236Y-68350881D01*
X78981638Y-68309740D01*
X78976605Y-68270324D01*
X78973729Y-68227075D01*
X78972980Y-68188106D01*
X78972980Y-67719159D01*
X79079470Y-67719159D01*
X79079470Y-68189473D01*
X79080405Y-68233227D01*
X79083763Y-68276705D01*
X79090461Y-68317298D01*
X79099009Y-68345984D01*
X79117593Y-68380432D01*
X79146594Y-68410494D01*
X79166030Y-68423556D01*
X79204727Y-68440106D01*
X79245365Y-68448567D01*
X79282289Y-68450715D01*
X79324023Y-68448820D01*
X79366704Y-68441815D01*
X79407559Y-68427490D01*
X79443421Y-68403317D01*
X79449938Y-68396787D01*
X79471822Y-68363606D01*
X79485841Y-68324375D01*
X79494048Y-68283173D01*
X79498200Y-68243496D01*
X79499910Y-68198963D01*
X79499958Y-68189473D01*
X79499958Y-67719159D01*
G37*
G36*
X80259261Y-68438210D02*
G01*
X80259261Y-68532000D01*
X79726616Y-68532000D01*
X79729783Y-68492638D01*
X79738144Y-68463221D01*
X79755112Y-68425949D01*
X79775506Y-68392427D01*
X79800633Y-68359248D01*
X79803406Y-68355949D01*
X79831728Y-68324866D01*
X79862197Y-68295056D01*
X79892945Y-68267289D01*
X79927508Y-68237952D01*
X79932757Y-68233632D01*
X79964252Y-68207178D01*
X79999877Y-68176093D01*
X80031342Y-68147212D01*
X80063610Y-68115465D01*
X80093685Y-68082437D01*
X80110175Y-68061490D01*
X80132560Y-68026311D01*
X80148841Y-67988491D01*
X80156302Y-67948432D01*
X80156483Y-67941323D01*
X80150548Y-67899411D01*
X80132743Y-67862774D01*
X80114278Y-67841281D01*
X80082395Y-67818031D01*
X80044509Y-67804431D01*
X80004857Y-67800443D01*
X79962947Y-67804813D01*
X79923281Y-67819714D01*
X79890356Y-67845189D01*
X79865924Y-67880038D01*
X79852369Y-67918811D01*
X79847217Y-67959483D01*
X79846979Y-67969264D01*
X79745374Y-67958517D01*
X79751290Y-67916658D01*
X79761274Y-67878714D01*
X79778061Y-67839395D01*
X79800383Y-67805405D01*
X79823922Y-67780513D01*
X79855991Y-67756607D01*
X79892529Y-67738572D01*
X79933537Y-67726409D01*
X79972243Y-67720657D01*
X80007007Y-67719159D01*
X80048761Y-67721433D01*
X80093185Y-67729833D01*
X80132990Y-67744423D01*
X80168177Y-67765203D01*
X80190482Y-67783835D01*
X80216825Y-67813608D01*
X80239008Y-67851252D01*
X80252740Y-67892755D01*
X80257824Y-67932235D01*
X80258088Y-67944058D01*
X80254831Y-67983331D01*
X80245060Y-68022088D01*
X80238353Y-68039801D01*
X80219870Y-68075687D01*
X80196459Y-68109837D01*
X80172701Y-68138671D01*
X80142065Y-68170967D01*
X80111591Y-68200318D01*
X80080842Y-68228422D01*
X80045820Y-68259247D01*
X80020098Y-68281309D01*
X79988991Y-68307955D01*
X79958344Y-68334718D01*
X79927870Y-68362287D01*
X79905792Y-68383891D01*
X79880218Y-68414349D01*
X79864173Y-68438210D01*
X80259261Y-68438210D01*
G37*
G36*
X90028432Y-61708529D02*
G01*
X90067942Y-61714155D01*
X90105900Y-61723532D01*
X90148222Y-61739212D01*
X90188430Y-61759997D01*
X90225620Y-61785372D01*
X90258715Y-61814825D01*
X90287714Y-61848353D01*
X90312619Y-61885959D01*
X90325011Y-61909278D01*
X90341014Y-61946047D01*
X90353706Y-61984547D01*
X90363088Y-62024779D01*
X90369158Y-62066741D01*
X90371917Y-62110435D01*
X90372101Y-62125384D01*
X90370652Y-62168189D01*
X90366304Y-62209068D01*
X90359058Y-62248022D01*
X90347227Y-62290181D01*
X90341815Y-62305342D01*
X90324754Y-62343908D01*
X90303859Y-62379885D01*
X90279130Y-62413273D01*
X90250566Y-62444072D01*
X90286958Y-62468130D01*
X90321885Y-62488720D01*
X90359425Y-62507737D01*
X90387342Y-62519494D01*
X90356079Y-62594526D01*
X90318142Y-62578834D01*
X90280243Y-62559626D01*
X90242381Y-62536903D01*
X90209958Y-62514628D01*
X90182959Y-62494093D01*
X90142910Y-62513736D01*
X90101065Y-62528554D01*
X90057425Y-62538548D01*
X90018590Y-62543274D01*
X89985220Y-62544505D01*
X89944902Y-62542643D01*
X89906012Y-62537058D01*
X89862447Y-62525837D01*
X89820826Y-62509548D01*
X89786700Y-62491553D01*
X89749758Y-62466253D01*
X89716725Y-62436859D01*
X89687600Y-62403368D01*
X89662383Y-62365783D01*
X89649728Y-62342467D01*
X89633393Y-62305558D01*
X89620437Y-62266932D01*
X89610862Y-62226588D01*
X89604665Y-62184527D01*
X89601849Y-62140749D01*
X89601661Y-62125775D01*
X89601669Y-62125579D01*
X89711473Y-62125579D01*
X89713371Y-62173358D01*
X89719067Y-62217529D01*
X89728560Y-62258095D01*
X89741851Y-62295053D01*
X89762811Y-62334644D01*
X89789240Y-62369041D01*
X89819921Y-62397860D01*
X89853637Y-62420716D01*
X89890391Y-62437610D01*
X89930180Y-62448542D01*
X89973006Y-62453511D01*
X89987956Y-62453842D01*
X90029840Y-62450792D01*
X90069911Y-62441642D01*
X90095618Y-62432153D01*
X90060582Y-62410263D01*
X90024253Y-62393221D01*
X89990105Y-62381937D01*
X90015897Y-62306905D01*
X90054770Y-62319680D01*
X90095372Y-62337302D01*
X90131896Y-62358148D01*
X90164341Y-62382218D01*
X90168109Y-62385454D01*
X90195185Y-62356276D01*
X90217672Y-62322844D01*
X90235569Y-62285156D01*
X90248877Y-62243213D01*
X90257597Y-62197015D01*
X90261268Y-62156992D01*
X90262094Y-62125189D01*
X90260504Y-62083206D01*
X90255736Y-62043599D01*
X90246394Y-62001241D01*
X90232899Y-61961985D01*
X90228877Y-61952655D01*
X90210339Y-61917802D01*
X90184871Y-61883555D01*
X90154519Y-61854563D01*
X90131571Y-61838154D01*
X90094378Y-61818414D01*
X90054682Y-61805134D01*
X90012482Y-61798314D01*
X89987956Y-61797317D01*
X89944622Y-61800216D01*
X89904159Y-61808912D01*
X89866568Y-61823407D01*
X89831848Y-61843699D01*
X89799999Y-61869788D01*
X89790021Y-61879773D01*
X89763327Y-61913479D01*
X89742156Y-61952900D01*
X89728732Y-61990116D01*
X89719144Y-62031302D01*
X89713391Y-62076456D01*
X89711473Y-62125579D01*
X89601669Y-62125579D01*
X89603358Y-62081614D01*
X89608448Y-62038965D01*
X89616932Y-61997827D01*
X89628809Y-61958200D01*
X89644079Y-61920084D01*
X89649924Y-61907715D01*
X89669531Y-61872507D01*
X89696035Y-61835599D01*
X89726448Y-61803179D01*
X89760769Y-61775247D01*
X89787677Y-61758043D01*
X89827753Y-61738019D01*
X89869849Y-61722914D01*
X89913965Y-61712726D01*
X89953385Y-61707909D01*
X89987370Y-61706654D01*
X90028432Y-61708529D01*
G37*
G36*
X90990524Y-62438210D02*
G01*
X90990524Y-62532000D01*
X90457879Y-62532000D01*
X90461046Y-62492638D01*
X90469407Y-62463221D01*
X90486375Y-62425949D01*
X90506770Y-62392427D01*
X90531896Y-62359248D01*
X90534669Y-62355949D01*
X90562991Y-62324866D01*
X90593461Y-62295056D01*
X90624208Y-62267289D01*
X90658771Y-62237952D01*
X90664020Y-62233632D01*
X90695515Y-62207178D01*
X90731140Y-62176093D01*
X90762606Y-62147212D01*
X90794873Y-62115465D01*
X90824948Y-62082437D01*
X90841438Y-62061490D01*
X90863823Y-62026311D01*
X90880104Y-61988491D01*
X90887566Y-61948432D01*
X90887746Y-61941323D01*
X90881811Y-61899411D01*
X90864006Y-61862774D01*
X90845541Y-61841281D01*
X90813658Y-61818031D01*
X90775772Y-61804431D01*
X90736120Y-61800443D01*
X90694210Y-61804813D01*
X90654544Y-61819714D01*
X90621619Y-61845189D01*
X90597187Y-61880038D01*
X90583632Y-61918811D01*
X90578480Y-61959483D01*
X90578242Y-61969264D01*
X90476637Y-61958517D01*
X90482554Y-61916658D01*
X90492537Y-61878714D01*
X90509324Y-61839395D01*
X90531646Y-61805405D01*
X90555185Y-61780513D01*
X90587254Y-61756607D01*
X90623792Y-61738572D01*
X90664800Y-61726409D01*
X90703506Y-61720657D01*
X90738270Y-61719159D01*
X90780024Y-61721433D01*
X90824448Y-61729833D01*
X90864253Y-61744423D01*
X90899440Y-61765203D01*
X90921745Y-61783835D01*
X90948088Y-61813608D01*
X90970271Y-61851252D01*
X90984004Y-61892755D01*
X90989087Y-61932235D01*
X90989351Y-61944058D01*
X90986094Y-61983331D01*
X90976323Y-62022088D01*
X90969617Y-62039801D01*
X90951134Y-62075687D01*
X90927722Y-62109837D01*
X90903964Y-62138671D01*
X90873329Y-62170967D01*
X90842855Y-62200318D01*
X90812105Y-62228422D01*
X90777083Y-62259247D01*
X90751361Y-62281309D01*
X90720255Y-62307955D01*
X90689607Y-62334718D01*
X90659133Y-62362287D01*
X90637056Y-62383891D01*
X90611481Y-62414349D01*
X90595437Y-62438210D01*
X90990524Y-62438210D01*
G37*
G36*
X89846072Y-67544379D02*
G01*
X89952757Y-67571344D01*
X89940947Y-67611441D01*
X89926524Y-67648448D01*
X89905764Y-67688775D01*
X89881241Y-67724652D01*
X89852953Y-67756077D01*
X89832003Y-67774554D01*
X89798030Y-67798326D01*
X89761322Y-67817180D01*
X89721881Y-67831116D01*
X89679706Y-67840133D01*
X89634796Y-67844231D01*
X89619219Y-67844505D01*
X89579679Y-67843202D01*
X89535367Y-67838202D01*
X89494477Y-67829450D01*
X89457007Y-67816948D01*
X89417615Y-67797622D01*
X89407216Y-67791162D01*
X89373429Y-67765543D01*
X89343364Y-67735362D01*
X89317020Y-67700617D01*
X89294397Y-67661310D01*
X89283141Y-67636801D01*
X89268665Y-67598323D01*
X89257184Y-67558802D01*
X89248698Y-67518236D01*
X89243207Y-67476626D01*
X89240711Y-67433972D01*
X89240545Y-67419522D01*
X89242235Y-67373182D01*
X89247304Y-67329122D01*
X89255753Y-67287343D01*
X89267582Y-67247844D01*
X89282791Y-67210626D01*
X89288612Y-67198727D01*
X89311586Y-67159692D01*
X89338449Y-67124996D01*
X89369203Y-67094638D01*
X89403845Y-67068618D01*
X89425388Y-67055698D01*
X89465125Y-67036588D01*
X89506545Y-67022172D01*
X89549648Y-67012449D01*
X89594434Y-67007420D01*
X89620782Y-67006654D01*
X89664785Y-67008845D01*
X89706081Y-67015419D01*
X89744670Y-67026376D01*
X89786271Y-67044698D01*
X89824187Y-67068985D01*
X89857868Y-67098686D01*
X89886762Y-67133248D01*
X89907718Y-67166743D01*
X89925157Y-67203810D01*
X89939079Y-67244449D01*
X89833957Y-67269264D01*
X89820517Y-67232278D01*
X89802181Y-67195734D01*
X89777757Y-67161919D01*
X89752673Y-67138350D01*
X89716663Y-67116711D01*
X89675309Y-67103087D01*
X89633523Y-67097678D01*
X89618633Y-67097317D01*
X89579476Y-67099467D01*
X89538276Y-67107192D01*
X89500861Y-67120533D01*
X89463294Y-67142258D01*
X89431154Y-67169963D01*
X89404857Y-67202522D01*
X89384402Y-67239934D01*
X89375562Y-67262816D01*
X89364535Y-67300930D01*
X89356658Y-67339655D01*
X89351932Y-67378990D01*
X89350356Y-67418936D01*
X89351787Y-67463066D01*
X89356078Y-67504672D01*
X89363231Y-67543753D01*
X89374909Y-67585327D01*
X89380252Y-67600066D01*
X89397361Y-67636227D01*
X89421543Y-67671097D01*
X89450948Y-67699816D01*
X89473455Y-67715545D01*
X89509884Y-67734057D01*
X89547953Y-67746511D01*
X89587659Y-67752907D01*
X89610426Y-67753842D01*
X89653462Y-67750545D01*
X89693078Y-67740653D01*
X89729275Y-67724166D01*
X89762052Y-67701085D01*
X89790604Y-67671508D01*
X89814125Y-67635531D01*
X89830578Y-67598801D01*
X89843179Y-67557173D01*
X89846072Y-67544379D01*
G37*
G36*
X90411933Y-67832000D02*
G01*
X90313064Y-67832000D01*
X90313064Y-67198531D01*
X90283114Y-67224470D01*
X90250156Y-67248247D01*
X90219275Y-67267701D01*
X90184169Y-67287515D01*
X90148241Y-67305432D01*
X90115129Y-67319285D01*
X90115129Y-67219243D01*
X90150460Y-67201541D01*
X90188388Y-67179410D01*
X90223702Y-67155251D01*
X90256404Y-67129065D01*
X90260307Y-67125649D01*
X90289104Y-67098404D01*
X90316069Y-67068249D01*
X90339288Y-67035360D01*
X90348235Y-67019159D01*
X90411933Y-67019159D01*
X90411933Y-67832000D01*
G37*
G36*
X81174795Y-61920216D02*
G01*
X81214492Y-61923385D01*
X81253815Y-61929595D01*
X81293901Y-61941239D01*
X81329777Y-61960279D01*
X81360296Y-61987307D01*
X81383392Y-62018810D01*
X81401115Y-62054741D01*
X81412274Y-62092923D01*
X81416868Y-62133356D01*
X81417000Y-62141713D01*
X81413531Y-62183479D01*
X81403127Y-62221825D01*
X81383130Y-62260877D01*
X81361508Y-62288259D01*
X81329988Y-62315260D01*
X81290921Y-62336863D01*
X81250547Y-62351338D01*
X81211342Y-62360456D01*
X81190147Y-62363877D01*
X81225292Y-62382939D01*
X81254432Y-62404128D01*
X81283123Y-62433197D01*
X81310821Y-62466425D01*
X81334902Y-62499887D01*
X81342750Y-62511790D01*
X81483043Y-62732000D01*
X81348807Y-62732000D01*
X81242317Y-62563570D01*
X81219993Y-62529266D01*
X81197331Y-62495783D01*
X81173160Y-62462206D01*
X81165332Y-62452000D01*
X81138355Y-62420839D01*
X81111208Y-62397875D01*
X81074901Y-62379997D01*
X81062554Y-62376382D01*
X81022328Y-62372718D01*
X81003155Y-62372474D01*
X80879470Y-62372474D01*
X80879470Y-62732000D01*
X80772980Y-62732000D01*
X80772980Y-62281811D01*
X80879470Y-62281811D01*
X81108667Y-62281811D01*
X81151231Y-62280304D01*
X81190865Y-62275163D01*
X81222973Y-62266375D01*
X81259268Y-62246347D01*
X81285695Y-62217136D01*
X81302465Y-62179358D01*
X81307188Y-62143277D01*
X81301335Y-62102519D01*
X81283777Y-62067586D01*
X81265569Y-62047533D01*
X81231387Y-62026063D01*
X81190416Y-62014278D01*
X81150851Y-62010154D01*
X81134460Y-62009822D01*
X80879470Y-62009822D01*
X80879470Y-62281811D01*
X80772980Y-62281811D01*
X80772980Y-61919159D01*
X81130161Y-61919159D01*
X81174795Y-61920216D01*
G37*
G36*
X81863982Y-61921768D02*
G01*
X81905616Y-61931138D01*
X81942928Y-61947322D01*
X81975916Y-61970320D01*
X81979735Y-61973674D01*
X82007078Y-62003435D01*
X82028339Y-62038399D01*
X82043519Y-62078564D01*
X82051813Y-62117977D01*
X82052617Y-62123933D01*
X81954334Y-62131748D01*
X81942830Y-62091228D01*
X81925519Y-62055624D01*
X81916818Y-62044212D01*
X81884139Y-62017540D01*
X81846183Y-62003179D01*
X81817949Y-62000443D01*
X81778781Y-62005417D01*
X81741712Y-62021787D01*
X81734906Y-62026431D01*
X81705132Y-62053184D01*
X81680022Y-62087233D01*
X81661242Y-62124519D01*
X81648210Y-62165022D01*
X81640024Y-62208317D01*
X81635487Y-62251830D01*
X81633548Y-62293310D01*
X81633301Y-62307994D01*
X81659754Y-62275804D01*
X81689948Y-62249895D01*
X81720642Y-62231790D01*
X81760136Y-62216549D01*
X81800949Y-62208343D01*
X81828891Y-62206780D01*
X81870810Y-62210277D01*
X81909888Y-62220767D01*
X81946123Y-62238252D01*
X81979515Y-62262730D01*
X81997321Y-62279857D01*
X82024425Y-62313791D01*
X82044872Y-62351819D01*
X82058661Y-62393944D01*
X82065183Y-62433309D01*
X82066881Y-62468413D01*
X82064284Y-62510333D01*
X82056495Y-62550584D01*
X82043512Y-62589165D01*
X82034055Y-62609878D01*
X82013752Y-62644177D01*
X81986626Y-62676630D01*
X81954691Y-62703131D01*
X81944173Y-62709920D01*
X81907007Y-62728158D01*
X81866825Y-62739641D01*
X81823628Y-62744370D01*
X81814627Y-62744505D01*
X81769853Y-62741297D01*
X81728293Y-62731673D01*
X81689949Y-62715633D01*
X81654819Y-62693177D01*
X81622904Y-62664305D01*
X81612980Y-62653256D01*
X81586485Y-62614881D01*
X81568593Y-62576553D01*
X81554508Y-62532453D01*
X81545981Y-62493017D01*
X81542147Y-62465872D01*
X81648737Y-62465872D01*
X81652317Y-62507519D01*
X81663055Y-62547682D01*
X81670426Y-62565719D01*
X81690886Y-62600715D01*
X81719267Y-62630037D01*
X81730998Y-62638406D01*
X81768493Y-62656217D01*
X81807706Y-62663124D01*
X81813064Y-62663221D01*
X81853996Y-62657125D01*
X81890818Y-62638839D01*
X81920726Y-62611637D01*
X81944528Y-62575771D01*
X81958413Y-62537293D01*
X81964760Y-62498159D01*
X81965862Y-62471344D01*
X81963078Y-62431007D01*
X81953289Y-62391029D01*
X81934146Y-62353316D01*
X81921312Y-62337108D01*
X81891217Y-62311245D01*
X81852911Y-62293859D01*
X81813359Y-62288112D01*
X81809156Y-62288064D01*
X81769253Y-62292853D01*
X81729943Y-62309185D01*
X81698375Y-62334090D01*
X81695436Y-62337108D01*
X81670810Y-62370756D01*
X81655304Y-62410396D01*
X81649148Y-62451194D01*
X81648737Y-62465872D01*
X81542147Y-62465872D01*
X81539890Y-62449887D01*
X81536236Y-62403062D01*
X81535018Y-62352544D01*
X81535775Y-62309740D01*
X81538047Y-62269182D01*
X81543433Y-62218600D01*
X81551511Y-62172010D01*
X81562282Y-62129414D01*
X81575746Y-62090812D01*
X81596363Y-62048174D01*
X81621187Y-62011776D01*
X81651238Y-61980301D01*
X81684971Y-61955338D01*
X81722386Y-61936887D01*
X81763483Y-61924948D01*
X81808261Y-61919521D01*
X81824006Y-61919159D01*
X81863982Y-61921768D01*
G37*
G36*
X87374795Y-63220216D02*
G01*
X87414492Y-63223385D01*
X87453815Y-63229595D01*
X87493901Y-63241239D01*
X87529777Y-63260279D01*
X87560296Y-63287307D01*
X87583392Y-63318810D01*
X87601115Y-63354741D01*
X87612274Y-63392923D01*
X87616868Y-63433356D01*
X87617000Y-63441713D01*
X87613531Y-63483479D01*
X87603127Y-63521825D01*
X87583130Y-63560877D01*
X87561508Y-63588259D01*
X87529988Y-63615260D01*
X87490921Y-63636863D01*
X87450547Y-63651338D01*
X87411342Y-63660456D01*
X87390147Y-63663877D01*
X87425292Y-63682939D01*
X87454432Y-63704128D01*
X87483123Y-63733197D01*
X87510821Y-63766425D01*
X87534902Y-63799887D01*
X87542750Y-63811790D01*
X87683043Y-64032000D01*
X87548807Y-64032000D01*
X87442317Y-63863570D01*
X87419993Y-63829266D01*
X87397331Y-63795783D01*
X87373160Y-63762206D01*
X87365332Y-63752000D01*
X87338355Y-63720839D01*
X87311208Y-63697875D01*
X87274901Y-63679997D01*
X87262554Y-63676382D01*
X87222328Y-63672718D01*
X87203155Y-63672474D01*
X87079470Y-63672474D01*
X87079470Y-64032000D01*
X86972980Y-64032000D01*
X86972980Y-63581811D01*
X87079470Y-63581811D01*
X87308667Y-63581811D01*
X87351231Y-63580304D01*
X87390865Y-63575163D01*
X87422973Y-63566375D01*
X87459268Y-63546347D01*
X87485695Y-63517136D01*
X87502465Y-63479358D01*
X87507188Y-63443277D01*
X87501335Y-63402519D01*
X87483777Y-63367586D01*
X87465569Y-63347533D01*
X87431387Y-63326063D01*
X87390416Y-63314278D01*
X87350851Y-63310154D01*
X87334460Y-63309822D01*
X87079470Y-63309822D01*
X87079470Y-63581811D01*
X86972980Y-63581811D01*
X86972980Y-63219159D01*
X87330161Y-63219159D01*
X87374795Y-63220216D01*
G37*
G36*
X87739316Y-63819411D02*
G01*
X87843266Y-63810618D01*
X87852162Y-63850389D01*
X87867702Y-63887583D01*
X87891672Y-63919989D01*
X87896804Y-63924923D01*
X87930757Y-63948261D01*
X87969601Y-63960827D01*
X87998214Y-63963221D01*
X88040651Y-63957840D01*
X88078814Y-63941697D01*
X88112703Y-63914792D01*
X88118968Y-63908120D01*
X88142959Y-63874297D01*
X88159098Y-63834817D01*
X88166853Y-63794975D01*
X88168598Y-63762160D01*
X88165618Y-63721164D01*
X88155142Y-63680503D01*
X88137124Y-63645622D01*
X88120921Y-63625579D01*
X88088365Y-63599201D01*
X88050045Y-63582593D01*
X88010631Y-63575998D01*
X87996455Y-63575558D01*
X87956496Y-63579897D01*
X87917585Y-63594174D01*
X87910286Y-63598224D01*
X87877806Y-63622295D01*
X87852538Y-63652377D01*
X87849714Y-63656842D01*
X87756902Y-63644728D01*
X87834864Y-63231665D01*
X88235618Y-63231665D01*
X88235618Y-63325454D01*
X87913999Y-63325454D01*
X87870621Y-63541951D01*
X87907392Y-63521092D01*
X87945018Y-63506193D01*
X87983498Y-63497254D01*
X88022834Y-63494274D01*
X88067415Y-63497790D01*
X88108837Y-63508337D01*
X88147098Y-63525915D01*
X88182199Y-63550524D01*
X88200838Y-63567743D01*
X88229160Y-63601819D01*
X88250526Y-63639935D01*
X88264935Y-63682090D01*
X88271750Y-63721437D01*
X88273524Y-63756494D01*
X88271285Y-63796622D01*
X88263012Y-63840782D01*
X88248642Y-63882080D01*
X88228177Y-63920518D01*
X88209826Y-63946221D01*
X88178751Y-63979622D01*
X88143706Y-64006113D01*
X88104691Y-64025693D01*
X88061705Y-64038362D01*
X88022850Y-64043641D01*
X87998214Y-64044505D01*
X87958383Y-64042341D01*
X87915508Y-64034347D01*
X87876505Y-64020462D01*
X87841372Y-64000687D01*
X87818647Y-63982956D01*
X87791142Y-63954026D01*
X87769322Y-63921262D01*
X87753186Y-63884665D01*
X87742736Y-63844235D01*
X87739316Y-63819411D01*
G37*
G36*
X73211752Y-60380216D02*
G01*
X73251449Y-60383385D01*
X73290772Y-60389595D01*
X73330858Y-60401239D01*
X73366734Y-60420279D01*
X73397253Y-60447307D01*
X73420349Y-60478810D01*
X73438072Y-60514741D01*
X73449231Y-60552923D01*
X73453825Y-60593356D01*
X73453957Y-60601713D01*
X73450488Y-60643479D01*
X73440084Y-60681825D01*
X73420087Y-60720877D01*
X73398465Y-60748259D01*
X73366945Y-60775260D01*
X73327878Y-60796863D01*
X73287504Y-60811338D01*
X73248299Y-60820456D01*
X73227104Y-60823877D01*
X73262249Y-60842939D01*
X73291389Y-60864128D01*
X73320080Y-60893197D01*
X73347778Y-60926425D01*
X73371859Y-60959887D01*
X73379707Y-60971790D01*
X73520000Y-61192000D01*
X73385764Y-61192000D01*
X73279274Y-61023570D01*
X73256950Y-60989266D01*
X73234288Y-60955783D01*
X73210117Y-60922206D01*
X73202289Y-60912000D01*
X73175312Y-60880839D01*
X73148165Y-60857875D01*
X73111858Y-60839997D01*
X73099511Y-60836382D01*
X73059285Y-60832718D01*
X73040112Y-60832474D01*
X72916427Y-60832474D01*
X72916427Y-61192000D01*
X72809937Y-61192000D01*
X72809937Y-60741811D01*
X72916427Y-60741811D01*
X73145624Y-60741811D01*
X73188188Y-60740304D01*
X73227822Y-60735163D01*
X73259930Y-60726375D01*
X73296225Y-60706347D01*
X73322652Y-60677136D01*
X73339422Y-60639358D01*
X73344145Y-60603277D01*
X73338292Y-60562519D01*
X73320734Y-60527586D01*
X73302526Y-60507533D01*
X73268344Y-60486063D01*
X73227373Y-60474278D01*
X73187808Y-60470154D01*
X73171417Y-60469822D01*
X72916427Y-60469822D01*
X72916427Y-60741811D01*
X72809937Y-60741811D01*
X72809937Y-60379159D01*
X73167118Y-60379159D01*
X73211752Y-60380216D01*
G37*
G36*
X73826378Y-61192000D02*
G01*
X73514138Y-60379159D01*
X73629616Y-60379159D01*
X73839079Y-60970227D01*
X73852608Y-61009523D01*
X73864839Y-61047397D01*
X73876906Y-61087812D01*
X73881284Y-61103486D01*
X73893580Y-61061842D01*
X73905625Y-61024363D01*
X73918598Y-60986884D01*
X73924661Y-60970227D01*
X74142331Y-60379159D01*
X74251165Y-60379159D01*
X73935799Y-61192000D01*
X73826378Y-61192000D01*
G37*
G36*
X74822303Y-61098210D02*
G01*
X74822303Y-61192000D01*
X74289658Y-61192000D01*
X74292825Y-61152638D01*
X74301186Y-61123221D01*
X74318154Y-61085949D01*
X74338549Y-61052427D01*
X74363675Y-61019248D01*
X74366448Y-61015949D01*
X74394770Y-60984866D01*
X74425239Y-60955056D01*
X74455987Y-60927289D01*
X74490550Y-60897952D01*
X74495799Y-60893632D01*
X74527294Y-60867178D01*
X74562919Y-60836093D01*
X74594385Y-60807212D01*
X74626652Y-60775465D01*
X74656727Y-60742437D01*
X74673217Y-60721490D01*
X74695602Y-60686311D01*
X74711883Y-60648491D01*
X74719344Y-60608432D01*
X74719525Y-60601323D01*
X74713590Y-60559411D01*
X74695785Y-60522774D01*
X74677320Y-60501281D01*
X74645437Y-60478031D01*
X74607551Y-60464431D01*
X74567899Y-60460443D01*
X74525989Y-60464813D01*
X74486323Y-60479714D01*
X74453398Y-60505189D01*
X74428966Y-60540038D01*
X74415411Y-60578811D01*
X74410259Y-60619483D01*
X74410021Y-60629264D01*
X74308416Y-60618517D01*
X74314333Y-60576658D01*
X74324316Y-60538714D01*
X74341103Y-60499395D01*
X74363425Y-60465405D01*
X74386964Y-60440513D01*
X74419033Y-60416607D01*
X74455571Y-60398572D01*
X74496579Y-60386409D01*
X74535285Y-60380657D01*
X74570049Y-60379159D01*
X74611803Y-60381433D01*
X74656227Y-60389833D01*
X74696032Y-60404423D01*
X74731219Y-60425203D01*
X74753524Y-60443835D01*
X74779867Y-60473608D01*
X74802050Y-60511252D01*
X74815783Y-60552755D01*
X74820866Y-60592235D01*
X74821130Y-60604058D01*
X74817873Y-60643331D01*
X74808102Y-60682088D01*
X74801396Y-60699801D01*
X74782913Y-60735687D01*
X74759501Y-60769837D01*
X74735743Y-60798671D01*
X74705108Y-60830967D01*
X74674634Y-60860318D01*
X74643884Y-60888422D01*
X74608862Y-60919247D01*
X74583140Y-60941309D01*
X74552034Y-60967955D01*
X74521386Y-60994718D01*
X74490912Y-61022287D01*
X74468835Y-61043891D01*
X74443260Y-61074349D01*
X74427216Y-61098210D01*
X74822303Y-61098210D01*
G37*
D12*
%TO.C,R4*%
X84672936Y-65265000D02*
X85127064Y-65265000D01*
X84672936Y-66735000D02*
X85127064Y-66735000D01*
%TO.C,U2*%
X84300000Y-67940000D02*
X82350000Y-67940000D01*
X84300000Y-67940000D02*
X86250000Y-67940000D01*
X84300000Y-73060000D02*
X82350000Y-73060000D01*
X84300000Y-73060000D02*
X86250000Y-73060000D01*
X81600000Y-68035000D02*
X81360000Y-67705000D01*
X81840000Y-67705000D01*
X81600000Y-68035000D01*
G36*
X81600000Y-68035000D02*
G01*
X81360000Y-67705000D01*
X81840000Y-67705000D01*
X81600000Y-68035000D01*
G37*
D13*
%TO.C,G\u002A\u002A\u002A*%
G36*
X75047641Y-74273620D02*
G01*
X75047641Y-74525720D01*
X75011105Y-74525720D01*
X74974569Y-74525720D01*
X74974569Y-74273620D01*
X74974569Y-74021519D01*
X75011105Y-74021519D01*
X75047641Y-74021519D01*
X75047641Y-74273620D01*
G37*
G36*
X75036018Y-73783991D02*
G01*
X75054129Y-73799673D01*
X75063182Y-73821307D01*
X75061652Y-73845207D01*
X75048016Y-73867689D01*
X75047641Y-73868067D01*
X75025949Y-73880789D01*
X75001410Y-73879713D01*
X74979208Y-73867537D01*
X74964024Y-73847901D01*
X74960361Y-73825252D01*
X74966862Y-73803489D01*
X74982170Y-73786511D01*
X75004930Y-73778218D01*
X75010372Y-73777944D01*
X75036018Y-73783991D01*
G37*
G36*
X72044361Y-73813263D02*
G01*
X72044361Y-73846145D01*
X71861680Y-73846145D01*
X71678999Y-73846145D01*
X71678999Y-73981330D01*
X71678999Y-74116514D01*
X71847066Y-74116514D01*
X72015132Y-74116514D01*
X72015132Y-74149396D01*
X72015132Y-74182279D01*
X71847066Y-74182279D01*
X71678999Y-74182279D01*
X71678999Y-74321117D01*
X71678999Y-74459954D01*
X71865334Y-74459954D01*
X72051669Y-74459954D01*
X72051669Y-74492837D01*
X72051669Y-74525720D01*
X71825144Y-74525720D01*
X71598619Y-74525720D01*
X71598619Y-74153050D01*
X71598619Y-73780380D01*
X71821490Y-73780380D01*
X72044361Y-73780380D01*
X72044361Y-73813263D01*
G37*
G36*
X74192693Y-73941140D02*
G01*
X74192693Y-74021519D01*
X74243844Y-74021519D01*
X74294994Y-74021519D01*
X74294994Y-74050748D01*
X74294994Y-74079977D01*
X74243844Y-74079977D01*
X74192693Y-74079977D01*
X74192693Y-74302849D01*
X74192693Y-74525720D01*
X74156157Y-74525720D01*
X74119620Y-74525720D01*
X74119620Y-74302849D01*
X74119620Y-74079977D01*
X74072123Y-74079977D01*
X74024626Y-74079977D01*
X74024626Y-74050748D01*
X74024626Y-74021519D01*
X74072123Y-74021519D01*
X74119620Y-74021519D01*
X74119620Y-73941140D01*
X74119620Y-73860760D01*
X74156157Y-73860760D01*
X74192693Y-73860760D01*
X74192693Y-73941140D01*
G37*
G36*
X75442233Y-72994851D02*
G01*
X75442233Y-73071577D01*
X75493383Y-73071577D01*
X75544534Y-73071577D01*
X75544534Y-73122728D01*
X75544534Y-73173878D01*
X75493383Y-73173878D01*
X75442233Y-73173878D01*
X75442233Y-73374828D01*
X75442233Y-73575777D01*
X75380121Y-73575777D01*
X75318009Y-73575777D01*
X75318009Y-73374828D01*
X75318009Y-73173878D01*
X75270512Y-73173878D01*
X75223015Y-73173878D01*
X75223015Y-73122728D01*
X75223015Y-73071577D01*
X75270512Y-73071577D01*
X75318009Y-73071577D01*
X75318009Y-72994851D01*
X75318009Y-72918125D01*
X75380121Y-72918125D01*
X75442233Y-72918125D01*
X75442233Y-72994851D01*
G37*
G36*
X76811826Y-74142756D02*
G01*
X76864005Y-74165037D01*
X76874101Y-74171096D01*
X76914738Y-74204988D01*
X76947018Y-74248641D01*
X76969144Y-74298756D01*
X76979316Y-74352034D01*
X76979779Y-74364960D01*
X76975110Y-74420211D01*
X76959650Y-74467721D01*
X76932005Y-74510944D01*
X76911789Y-74533443D01*
X76865312Y-74571063D01*
X76813894Y-74595319D01*
X76758965Y-74605868D01*
X76701956Y-74602368D01*
X76664973Y-74592573D01*
X76612789Y-74567364D01*
X76570305Y-74531862D01*
X76538415Y-74487441D01*
X76518014Y-74435471D01*
X76509995Y-74377326D01*
X76510305Y-74355274D01*
X76519840Y-74299266D01*
X76541038Y-74249839D01*
X76572089Y-74207908D01*
X76611185Y-74174389D01*
X76656516Y-74150198D01*
X76706273Y-74136252D01*
X76758646Y-74133466D01*
X76811826Y-74142756D01*
G37*
G36*
X73454406Y-74011604D02*
G01*
X73468403Y-74015731D01*
X73474804Y-74023735D01*
X73476535Y-74040311D01*
X73476582Y-74047157D01*
X73476582Y-74078275D01*
X73429937Y-74081245D01*
X73382280Y-74090309D01*
X73343626Y-74110795D01*
X73314158Y-74142591D01*
X73306833Y-74154885D01*
X73301512Y-74165594D01*
X73297425Y-74176640D01*
X73294374Y-74190116D01*
X73292163Y-74208118D01*
X73290596Y-74232738D01*
X73289474Y-74266071D01*
X73288601Y-74310211D01*
X73287935Y-74355826D01*
X73285622Y-74525720D01*
X73249572Y-74525720D01*
X73213521Y-74525720D01*
X73213521Y-74273620D01*
X73213521Y-74021519D01*
X73250058Y-74021519D01*
X73286594Y-74021519D01*
X73286621Y-74059882D01*
X73286649Y-74098246D01*
X73301169Y-74074430D01*
X73317849Y-74053887D01*
X73338257Y-74036901D01*
X73339126Y-74036362D01*
X73368187Y-74023140D01*
X73402441Y-74013960D01*
X73435407Y-74010215D01*
X73454406Y-74011604D01*
G37*
G36*
X72558314Y-74021406D02*
G01*
X72563283Y-74021519D01*
X72584485Y-74022132D01*
X72594139Y-74024852D01*
X72595287Y-74030997D01*
X72593996Y-74034840D01*
X72590055Y-74044521D01*
X72581202Y-74066071D01*
X72568112Y-74097855D01*
X72551459Y-74138235D01*
X72531918Y-74185575D01*
X72510164Y-74238241D01*
X72490104Y-74286779D01*
X72391456Y-74525399D01*
X72354920Y-74525531D01*
X72318383Y-74525662D01*
X72217812Y-74279071D01*
X72194825Y-74222559D01*
X72173691Y-74170307D01*
X72155024Y-74123861D01*
X72139440Y-74084764D01*
X72127554Y-74054559D01*
X72119981Y-74034789D01*
X72117337Y-74027000D01*
X72123965Y-74023851D01*
X72140778Y-74021870D01*
X72153407Y-74021519D01*
X72189379Y-74021519D01*
X72269495Y-74224296D01*
X72289795Y-74275744D01*
X72308380Y-74322979D01*
X72324560Y-74364238D01*
X72337646Y-74397758D01*
X72346949Y-74421776D01*
X72351779Y-74434527D01*
X72352265Y-74435933D01*
X72355554Y-74431839D01*
X72363481Y-74415802D01*
X72375323Y-74389474D01*
X72390356Y-74354507D01*
X72407856Y-74312552D01*
X72427099Y-74265262D01*
X72427521Y-74264213D01*
X72453149Y-74200315D01*
X72473878Y-74148628D01*
X72490425Y-74107869D01*
X72503507Y-74076758D01*
X72513843Y-74054011D01*
X72522147Y-74038347D01*
X72529139Y-74028484D01*
X72535534Y-74023141D01*
X72542050Y-74021034D01*
X72549404Y-74020883D01*
X72558314Y-74021406D01*
G37*
G36*
X75497316Y-74015123D02*
G01*
X75541898Y-74028327D01*
X75577378Y-74051600D01*
X75605156Y-74085735D01*
X75618360Y-74110980D01*
X75623635Y-74123415D01*
X75627747Y-74135666D01*
X75630873Y-74149759D01*
X75633191Y-74167721D01*
X75634877Y-74191581D01*
X75636109Y-74223365D01*
X75637066Y-74265100D01*
X75637923Y-74318814D01*
X75638187Y-74337558D01*
X75640800Y-74525720D01*
X75603628Y-74525720D01*
X75566456Y-74525720D01*
X75566281Y-74363133D01*
X75565944Y-74300903D01*
X75564936Y-74251409D01*
X75563046Y-74212780D01*
X75560058Y-74183147D01*
X75555761Y-74160638D01*
X75549940Y-74143382D01*
X75542382Y-74129509D01*
X75539087Y-74124838D01*
X75515610Y-74099433D01*
X75488646Y-74083943D01*
X75453667Y-74076052D01*
X75441284Y-74074847D01*
X75412910Y-74073661D01*
X75391720Y-74076368D01*
X75370491Y-74084415D01*
X75355388Y-74092059D01*
X75328333Y-74108977D01*
X75308694Y-74129029D01*
X75293276Y-74153050D01*
X75270512Y-74193240D01*
X75268087Y-74359480D01*
X75265662Y-74525720D01*
X75229724Y-74525720D01*
X75193786Y-74525720D01*
X75193786Y-74273620D01*
X75193786Y-74021519D01*
X75225827Y-74021519D01*
X75257867Y-74021519D01*
X75262965Y-74062321D01*
X75268063Y-74103123D01*
X75292836Y-74074181D01*
X75328199Y-74042065D01*
X75370073Y-74021624D01*
X75420243Y-74012107D01*
X75442233Y-74011195D01*
X75497316Y-74015123D01*
G37*
G36*
X73278910Y-73064164D02*
G01*
X73323811Y-73080742D01*
X73362308Y-73107683D01*
X73372832Y-73118541D01*
X73385849Y-73134919D01*
X73396153Y-73152338D01*
X73404049Y-73172685D01*
X73409844Y-73197845D01*
X73413842Y-73229703D01*
X73416350Y-73270147D01*
X73417672Y-73321061D01*
X73418114Y-73384332D01*
X73418124Y-73398076D01*
X73418124Y-73575777D01*
X73356013Y-73575777D01*
X73293901Y-73575777D01*
X73293901Y-73414783D01*
X73293667Y-73355708D01*
X73292736Y-73309316D01*
X73290761Y-73273679D01*
X73287399Y-73246871D01*
X73282304Y-73226964D01*
X73275131Y-73212030D01*
X73265535Y-73200142D01*
X73253611Y-73189720D01*
X73228713Y-73177967D01*
X73196292Y-73173167D01*
X73161679Y-73175322D01*
X73130210Y-73184437D01*
X73120354Y-73189622D01*
X73104435Y-73200789D01*
X73092046Y-73213518D01*
X73082752Y-73229706D01*
X73076120Y-73251249D01*
X73071716Y-73280044D01*
X73069106Y-73317987D01*
X73067856Y-73366975D01*
X73067537Y-73420498D01*
X73067376Y-73575777D01*
X73005265Y-73575777D01*
X72943153Y-73575777D01*
X72943153Y-73323677D01*
X72943153Y-73071577D01*
X73001611Y-73071577D01*
X73060069Y-73071577D01*
X73060069Y-73095934D01*
X73061369Y-73113945D01*
X73064525Y-73124704D01*
X73064809Y-73125032D01*
X73072379Y-73123287D01*
X73086640Y-73113675D01*
X73097390Y-73104620D01*
X73136845Y-73078177D01*
X73182321Y-73062725D01*
X73230711Y-73058106D01*
X73278910Y-73064164D01*
G37*
G36*
X73878104Y-73064164D02*
G01*
X73923005Y-73080742D01*
X73961503Y-73107683D01*
X73972027Y-73118541D01*
X73985044Y-73134919D01*
X73995347Y-73152338D01*
X74003244Y-73172685D01*
X74009038Y-73197845D01*
X74013037Y-73229703D01*
X74015544Y-73270147D01*
X74016866Y-73321061D01*
X74017309Y-73384332D01*
X74017319Y-73398076D01*
X74017319Y-73575777D01*
X73955207Y-73575777D01*
X73893096Y-73575777D01*
X73893096Y-73414783D01*
X73892862Y-73355708D01*
X73891930Y-73309316D01*
X73889956Y-73273679D01*
X73886593Y-73246871D01*
X73881498Y-73226964D01*
X73874325Y-73212030D01*
X73864729Y-73200142D01*
X73852806Y-73189720D01*
X73827908Y-73177967D01*
X73795486Y-73173167D01*
X73760874Y-73175322D01*
X73729405Y-73184437D01*
X73719548Y-73189622D01*
X73703629Y-73200789D01*
X73691240Y-73213518D01*
X73681947Y-73229706D01*
X73675315Y-73251249D01*
X73670911Y-73280044D01*
X73668301Y-73317987D01*
X73667051Y-73366975D01*
X73666731Y-73420498D01*
X73666571Y-73575777D01*
X73604459Y-73575777D01*
X73542348Y-73575777D01*
X73542348Y-73323677D01*
X73542348Y-73071577D01*
X73600806Y-73071577D01*
X73659264Y-73071577D01*
X73659264Y-73095934D01*
X73660563Y-73113945D01*
X73663719Y-73124704D01*
X73664004Y-73125032D01*
X73671574Y-73123287D01*
X73685834Y-73113675D01*
X73696584Y-73104620D01*
X73736040Y-73078177D01*
X73781516Y-73062725D01*
X73829906Y-73058106D01*
X73878104Y-73064164D01*
G37*
G36*
X74463061Y-73935148D02*
G01*
X74463061Y-74104530D01*
X74488437Y-74074884D01*
X74525103Y-74042824D01*
X74570048Y-74020813D01*
X74620230Y-74009658D01*
X74672608Y-74010164D01*
X74706499Y-74017158D01*
X74751680Y-74036600D01*
X74786669Y-74066198D01*
X74812773Y-74107085D01*
X74814563Y-74110980D01*
X74819838Y-74123415D01*
X74823950Y-74135666D01*
X74827076Y-74149759D01*
X74829393Y-74167721D01*
X74831080Y-74191581D01*
X74832312Y-74223365D01*
X74833268Y-74265100D01*
X74834125Y-74318814D01*
X74834389Y-74337558D01*
X74837003Y-74525720D01*
X74799831Y-74525720D01*
X74762658Y-74525720D01*
X74762484Y-74363133D01*
X74762137Y-74313979D01*
X74761264Y-74268114D01*
X74759957Y-74228127D01*
X74758309Y-74196610D01*
X74756413Y-74176152D01*
X74755662Y-74171884D01*
X74739726Y-74131519D01*
X74713508Y-74101187D01*
X74678030Y-74081816D01*
X74649292Y-74075396D01*
X74601846Y-74075285D01*
X74560787Y-74087679D01*
X74523669Y-74113441D01*
X74513568Y-74123251D01*
X74498337Y-74140117D01*
X74486490Y-74156888D01*
X74477608Y-74175649D01*
X74471274Y-74198488D01*
X74467070Y-74227491D01*
X74464579Y-74264744D01*
X74463382Y-74312333D01*
X74463062Y-74372347D01*
X74463061Y-74375503D01*
X74463061Y-74525720D01*
X74426525Y-74525720D01*
X74389989Y-74525720D01*
X74389989Y-74145743D01*
X74389989Y-73765766D01*
X74426525Y-73765766D01*
X74463061Y-73765766D01*
X74463061Y-73935148D01*
G37*
G36*
X72617717Y-73063187D02*
G01*
X72666172Y-73072692D01*
X72681566Y-73077944D01*
X72728574Y-73103136D01*
X72770904Y-73138601D01*
X72804553Y-73180659D01*
X72816215Y-73201629D01*
X72831593Y-73246535D01*
X72839668Y-73298356D01*
X72840064Y-73351255D01*
X72832403Y-73399395D01*
X72829611Y-73408730D01*
X72804699Y-73465331D01*
X72770790Y-73510746D01*
X72727250Y-73545511D01*
X72673447Y-73570162D01*
X72624400Y-73582630D01*
X72594215Y-73587634D01*
X72571082Y-73589280D01*
X72548416Y-73587431D01*
X72519635Y-73581950D01*
X72512025Y-73580286D01*
X72451524Y-73560316D01*
X72400786Y-73529710D01*
X72360460Y-73489231D01*
X72331196Y-73439637D01*
X72313643Y-73381689D01*
X72308971Y-73342678D01*
X72310261Y-73308251D01*
X72432769Y-73308251D01*
X72432959Y-73338163D01*
X72441962Y-73384942D01*
X72462039Y-73423466D01*
X72492435Y-73452430D01*
X72502873Y-73458748D01*
X72522751Y-73467297D01*
X72545147Y-73471370D01*
X72575515Y-73471856D01*
X72582123Y-73471635D01*
X72612054Y-73469592D01*
X72632836Y-73465186D01*
X72649913Y-73456844D01*
X72661472Y-73448665D01*
X72690999Y-73417599D01*
X72709213Y-73377841D01*
X72716342Y-73328865D01*
X72716468Y-73321487D01*
X72710855Y-73272116D01*
X72694179Y-73231604D01*
X72667241Y-73200796D01*
X72630845Y-73180541D01*
X72585792Y-73171684D01*
X72574137Y-73171348D01*
X72527328Y-73177359D01*
X72489108Y-73194856D01*
X72460156Y-73223038D01*
X72441151Y-73261104D01*
X72432769Y-73308251D01*
X72310261Y-73308251D01*
X72311416Y-73277436D01*
X72326237Y-73218619D01*
X72352829Y-73167234D01*
X72390591Y-73124290D01*
X72438919Y-73090794D01*
X72467602Y-73077610D01*
X72512637Y-73065636D01*
X72564607Y-73060832D01*
X72617717Y-73063187D01*
G37*
G36*
X74979943Y-73062750D02*
G01*
X75019662Y-73069725D01*
X75054520Y-73082818D01*
X75085482Y-73100768D01*
X75124477Y-73134655D01*
X75152865Y-73177996D01*
X75167226Y-73215895D01*
X75178384Y-73254258D01*
X75117134Y-73254258D01*
X75055883Y-73254258D01*
X75039456Y-73225030D01*
X75015340Y-73195490D01*
X74984102Y-73176602D01*
X74948618Y-73168354D01*
X74911763Y-73170738D01*
X74876412Y-73183744D01*
X74845440Y-73207361D01*
X74830734Y-73225738D01*
X74819818Y-73244369D01*
X74813207Y-73262871D01*
X74809613Y-73286328D01*
X74807894Y-73315826D01*
X74807371Y-73348284D01*
X74809335Y-73371426D01*
X74814612Y-73390458D01*
X74822508Y-73407651D01*
X74845295Y-73441135D01*
X74873882Y-73462206D01*
X74910517Y-73472193D01*
X74933632Y-73473448D01*
X74976436Y-73468714D01*
X75009664Y-73453935D01*
X75035180Y-73428165D01*
X75041341Y-73418605D01*
X75056392Y-73393096D01*
X75117432Y-73393096D01*
X75178473Y-73393096D01*
X75168075Y-73427644D01*
X75146874Y-73474657D01*
X75114489Y-73516563D01*
X75073883Y-73550401D01*
X75028022Y-73573210D01*
X75019708Y-73575838D01*
X74988300Y-73582279D01*
X74950878Y-73586136D01*
X74913291Y-73587132D01*
X74881390Y-73584989D01*
X74870410Y-73582917D01*
X74813522Y-73561782D01*
X74766038Y-73529461D01*
X74727939Y-73485937D01*
X74706423Y-73447900D01*
X74697186Y-73426773D01*
X74691219Y-73408077D01*
X74687820Y-73387568D01*
X74686291Y-73361001D01*
X74685932Y-73324131D01*
X74685932Y-73323523D01*
X74686200Y-73287247D01*
X74687533Y-73261299D01*
X74690723Y-73241397D01*
X74696564Y-73223259D01*
X74705848Y-73202601D01*
X74709831Y-73194445D01*
X74737567Y-73148863D01*
X74772019Y-73113579D01*
X74816614Y-73085268D01*
X74828090Y-73079662D01*
X74852475Y-73069567D01*
X74875658Y-73063751D01*
X74903359Y-73061158D01*
X74930725Y-73060693D01*
X74979943Y-73062750D01*
G37*
G36*
X73677840Y-74237083D02*
G01*
X73697423Y-74289915D01*
X73715502Y-74338053D01*
X73731441Y-74379856D01*
X73744607Y-74413685D01*
X73754364Y-74437899D01*
X73760078Y-74450859D01*
X73761231Y-74452607D01*
X73764597Y-74445989D01*
X73772240Y-74427263D01*
X73783530Y-74398085D01*
X73797840Y-74360115D01*
X73814541Y-74315009D01*
X73833004Y-74264426D01*
X73841914Y-74239778D01*
X73861153Y-74187023D01*
X73879158Y-74138828D01*
X73895263Y-74096885D01*
X73908802Y-74062887D01*
X73919108Y-74038529D01*
X73925515Y-74025503D01*
X73926939Y-74023793D01*
X73939189Y-74022273D01*
X73958992Y-74022544D01*
X73963978Y-74022885D01*
X73992689Y-74025173D01*
X73870313Y-74353187D01*
X73841552Y-74430097D01*
X73817289Y-74494501D01*
X73797009Y-74547618D01*
X73780202Y-74590671D01*
X73766355Y-74624882D01*
X73754955Y-74651472D01*
X73745490Y-74671663D01*
X73737449Y-74686676D01*
X73730318Y-74697734D01*
X73723585Y-74706057D01*
X73721368Y-74708408D01*
X73699876Y-74726382D01*
X73676311Y-74740314D01*
X73667050Y-74743930D01*
X73641701Y-74748674D01*
X73609354Y-74751040D01*
X73576776Y-74750841D01*
X73550733Y-74747893D01*
X73547828Y-74747207D01*
X73538696Y-74740000D01*
X73535190Y-74722742D01*
X73535040Y-74715946D01*
X73535040Y-74688027D01*
X73594136Y-74685343D01*
X73623801Y-74683671D01*
X73643125Y-74680951D01*
X73656376Y-74675689D01*
X73667820Y-74666391D01*
X73677549Y-74656125D01*
X73694204Y-74632935D01*
X73708862Y-74604212D01*
X73713944Y-74590443D01*
X73726022Y-74551295D01*
X73626878Y-74292742D01*
X73604631Y-74234566D01*
X73584127Y-74180631D01*
X73565936Y-74132470D01*
X73550634Y-74091613D01*
X73538791Y-74059591D01*
X73530983Y-74037935D01*
X73527781Y-74028177D01*
X73527733Y-74027854D01*
X73534294Y-74024189D01*
X73551016Y-74021902D01*
X73563085Y-74021519D01*
X73598437Y-74021519D01*
X73677840Y-74237083D01*
G37*
G36*
X71971833Y-72826594D02*
G01*
X72037244Y-72844051D01*
X72095444Y-72873589D01*
X72141009Y-72909417D01*
X72180102Y-72952678D01*
X72207596Y-72999820D01*
X72222371Y-73040521D01*
X72233562Y-73078884D01*
X72164880Y-73078884D01*
X72096198Y-73078884D01*
X72083344Y-73051796D01*
X72060843Y-73017575D01*
X72029418Y-72986937D01*
X71994056Y-72964395D01*
X71980681Y-72958910D01*
X71954172Y-72952698D01*
X71920113Y-72948562D01*
X71891042Y-72947354D01*
X71857077Y-72948500D01*
X71831304Y-72952782D01*
X71807422Y-72961467D01*
X71797675Y-72966113D01*
X71753406Y-72996072D01*
X71718047Y-73036620D01*
X71692302Y-73086249D01*
X71676876Y-73143456D01*
X71672474Y-73206734D01*
X71673741Y-73230908D01*
X71684845Y-73294581D01*
X71706456Y-73349456D01*
X71738068Y-73394690D01*
X71779177Y-73429441D01*
X71799835Y-73441043D01*
X71844844Y-73456026D01*
X71895686Y-73461461D01*
X71947056Y-73457263D01*
X71992015Y-73444064D01*
X72020300Y-73428024D01*
X72048220Y-73405731D01*
X72072111Y-73380760D01*
X72088311Y-73356689D01*
X72092403Y-73346031D01*
X72095165Y-73337330D01*
X72100109Y-73331858D01*
X72110178Y-73328868D01*
X72128312Y-73327609D01*
X72157453Y-73327334D01*
X72165862Y-73327331D01*
X72234628Y-73327331D01*
X72230029Y-73347426D01*
X72209832Y-73404065D01*
X72177174Y-73456275D01*
X72134011Y-73502037D01*
X72082296Y-73539334D01*
X72023983Y-73566147D01*
X72015582Y-73568894D01*
X71970718Y-73579332D01*
X71920276Y-73585458D01*
X71870630Y-73586793D01*
X71828798Y-73582972D01*
X71757615Y-73563686D01*
X71695717Y-73533311D01*
X71643488Y-73492348D01*
X71601311Y-73441301D01*
X71569570Y-73380671D01*
X71548651Y-73310960D01*
X71538938Y-73232672D01*
X71538257Y-73203107D01*
X71543507Y-73125507D01*
X71559374Y-73056993D01*
X71586409Y-72996059D01*
X71625160Y-72941196D01*
X71639668Y-72925155D01*
X71691348Y-72880368D01*
X71749162Y-72848308D01*
X71813968Y-72828630D01*
X71886630Y-72820986D01*
X71898216Y-72820856D01*
X71971833Y-72826594D01*
G37*
G36*
X72926137Y-74017365D02*
G01*
X72977793Y-74035656D01*
X73020838Y-74065396D01*
X73054714Y-74106040D01*
X73078864Y-74157038D01*
X73092732Y-74217845D01*
X73094589Y-74235247D01*
X73098725Y-74284580D01*
X72895886Y-74284580D01*
X72693047Y-74284580D01*
X72698160Y-74319290D01*
X72710387Y-74363518D01*
X72732225Y-74404790D01*
X72760911Y-74438379D01*
X72773720Y-74448628D01*
X72793561Y-74460907D01*
X72812978Y-74468134D01*
X72837654Y-74471959D01*
X72858971Y-74473391D01*
X72911212Y-74472102D01*
X72952852Y-74461915D01*
X72985378Y-74442146D01*
X73010276Y-74412110D01*
X73016578Y-74400806D01*
X73026971Y-74382907D01*
X73037753Y-74374652D01*
X73054985Y-74372350D01*
X73063428Y-74372267D01*
X73095718Y-74372267D01*
X73083979Y-74406720D01*
X73065564Y-74442289D01*
X73037037Y-74476125D01*
X73002681Y-74503970D01*
X72969291Y-74520744D01*
X72918590Y-74533016D01*
X72866193Y-74536968D01*
X72817893Y-74532292D01*
X72805997Y-74529424D01*
X72768469Y-74517240D01*
X72739771Y-74503123D01*
X72714170Y-74483872D01*
X72699185Y-74469788D01*
X72665477Y-74426545D01*
X72641968Y-74375106D01*
X72628965Y-74318037D01*
X72626779Y-74257905D01*
X72631740Y-74224262D01*
X72698408Y-74224262D01*
X72699364Y-74227747D01*
X72707380Y-74229404D01*
X72727861Y-74230870D01*
X72758655Y-74232072D01*
X72797614Y-74232934D01*
X72842587Y-74233383D01*
X72863205Y-74233430D01*
X73023533Y-74233430D01*
X73023533Y-74216252D01*
X73018409Y-74184981D01*
X73004685Y-74150710D01*
X72989218Y-74125580D01*
X72959892Y-74097072D01*
X72922040Y-74079605D01*
X72874768Y-74072796D01*
X72866427Y-74072670D01*
X72819731Y-74077264D01*
X72781223Y-74092007D01*
X72747355Y-74118338D01*
X72743041Y-74122757D01*
X72730911Y-74139291D01*
X72718625Y-74161933D01*
X72707941Y-74186458D01*
X72700616Y-74208643D01*
X72698408Y-74224262D01*
X72631740Y-74224262D01*
X72635719Y-74197273D01*
X72656095Y-74138710D01*
X72658608Y-74133406D01*
X72689058Y-74085803D01*
X72728434Y-74049702D01*
X72776397Y-74025301D01*
X72832606Y-74012803D01*
X72866427Y-74011073D01*
X72926137Y-74017365D01*
G37*
G36*
X74400614Y-73060953D02*
G01*
X74453880Y-73074084D01*
X74501760Y-73097022D01*
X74537908Y-73125930D01*
X74567676Y-73165727D01*
X74590491Y-73214944D01*
X74604825Y-73269426D01*
X74609206Y-73319281D01*
X74609206Y-73347048D01*
X74537960Y-73351766D01*
X74504496Y-73353460D01*
X74461230Y-73354889D01*
X74412975Y-73355934D01*
X74364544Y-73356474D01*
X74347972Y-73356522D01*
X74301456Y-73356594D01*
X74267929Y-73357349D01*
X74245768Y-73359645D01*
X74233347Y-73364339D01*
X74229043Y-73372290D01*
X74231232Y-73384356D01*
X74238289Y-73401396D01*
X74243086Y-73411938D01*
X74266541Y-73447346D01*
X74299211Y-73471858D01*
X74339952Y-73484889D01*
X74387519Y-73485865D01*
X74427217Y-73477063D01*
X74459866Y-73460516D01*
X74482239Y-73437956D01*
X74484849Y-73433536D01*
X74490825Y-73424244D01*
X74498812Y-73418722D01*
X74512366Y-73415995D01*
X74535043Y-73415091D01*
X74552475Y-73415018D01*
X74581166Y-73415206D01*
X74597971Y-73416338D01*
X74605616Y-73419268D01*
X74606831Y-73424845D01*
X74605107Y-73431459D01*
X74583342Y-73478809D01*
X74550462Y-73520154D01*
X74509281Y-73552605D01*
X74468908Y-73571350D01*
X74418793Y-73583091D01*
X74366399Y-73587418D01*
X74317530Y-73584053D01*
X74296676Y-73579527D01*
X74269981Y-73571027D01*
X74245424Y-73561599D01*
X74236003Y-73557233D01*
X74204978Y-73535537D01*
X74174157Y-73504248D01*
X74147594Y-73467872D01*
X74135316Y-73445328D01*
X74126539Y-73425059D01*
X74120881Y-73406506D01*
X74117677Y-73385487D01*
X74116261Y-73357818D01*
X74115967Y-73323677D01*
X74116347Y-73286337D01*
X74116942Y-73276180D01*
X74236536Y-73276180D01*
X74360760Y-73276180D01*
X74406306Y-73276054D01*
X74439239Y-73275546D01*
X74461559Y-73274457D01*
X74475264Y-73272588D01*
X74482356Y-73269742D01*
X74484835Y-73265720D01*
X74484983Y-73263873D01*
X74481922Y-73250132D01*
X74474197Y-73229791D01*
X74469929Y-73220468D01*
X74447484Y-73189853D01*
X74415580Y-73169677D01*
X74375670Y-73160657D01*
X74349049Y-73160849D01*
X74317304Y-73166458D01*
X74292628Y-73176535D01*
X74289211Y-73178830D01*
X74267670Y-73199023D01*
X74249750Y-73223354D01*
X74238627Y-73246991D01*
X74236536Y-73258992D01*
X74236536Y-73276180D01*
X74116942Y-73276180D01*
X74117923Y-73259455D01*
X74118000Y-73258992D01*
X74121344Y-73238883D01*
X74127262Y-73220474D01*
X74134894Y-73203107D01*
X74163891Y-73152801D01*
X74198731Y-73114629D01*
X74241809Y-73086522D01*
X74291917Y-73067441D01*
X74345461Y-73058462D01*
X74400614Y-73060953D01*
G37*
G36*
X76037113Y-74016218D02*
G01*
X76085970Y-74033031D01*
X76125572Y-74060965D01*
X76146363Y-74085233D01*
X76169304Y-74117852D01*
X76171465Y-74069686D01*
X76173625Y-74021519D01*
X76206573Y-74021519D01*
X76239520Y-74021519D01*
X76237295Y-74301022D01*
X76235069Y-74580524D01*
X76216142Y-74620714D01*
X76193128Y-74662499D01*
X76167230Y-74693591D01*
X76134743Y-74717887D01*
X76112222Y-74730011D01*
X76062727Y-74747598D01*
X76007594Y-74756341D01*
X75953299Y-74755437D01*
X75933444Y-74752231D01*
X75895294Y-74739838D01*
X75856688Y-74720038D01*
X75823261Y-74696069D01*
X75806675Y-74679418D01*
X75793950Y-74660550D01*
X75780371Y-74635200D01*
X75768133Y-74608184D01*
X75759434Y-74584317D01*
X75756444Y-74569289D01*
X75763007Y-74565234D01*
X75779746Y-74562692D01*
X75792067Y-74562256D01*
X75813537Y-74562890D01*
X75824736Y-74566446D01*
X75830002Y-74575404D01*
X75832290Y-74585254D01*
X75840854Y-74604677D01*
X75858267Y-74628446D01*
X75871566Y-74642831D01*
X75895116Y-74664074D01*
X75916752Y-74677073D01*
X75942982Y-74685532D01*
X75949057Y-74686939D01*
X76000458Y-74692119D01*
X76048334Y-74684871D01*
X76090630Y-74666057D01*
X76125293Y-74636539D01*
X76147140Y-74603839D01*
X76155617Y-74585181D01*
X76161053Y-74567479D01*
X76164100Y-74546647D01*
X76165412Y-74518596D01*
X76165650Y-74487912D01*
X76165650Y-74409130D01*
X76136088Y-74441201D01*
X76100556Y-74473345D01*
X76062358Y-74493952D01*
X76017846Y-74504550D01*
X75979315Y-74506845D01*
X75923719Y-74502353D01*
X75876873Y-74487517D01*
X75836286Y-74461331D01*
X75814419Y-74440315D01*
X75788706Y-74409466D01*
X75771006Y-74379766D01*
X75759999Y-74347336D01*
X75754367Y-74308295D01*
X75752791Y-74259005D01*
X75752826Y-74256258D01*
X75818354Y-74256258D01*
X75822459Y-74303430D01*
X75836716Y-74348024D01*
X75861389Y-74387194D01*
X75870460Y-74397062D01*
X75908675Y-74425290D01*
X75953412Y-74441296D01*
X76002437Y-74444562D01*
X76044019Y-74437437D01*
X76073452Y-74423566D01*
X76103384Y-74400135D01*
X76129374Y-74371339D01*
X76146983Y-74341374D01*
X76147771Y-74339383D01*
X76154811Y-74313630D01*
X76157733Y-74281865D01*
X76157290Y-74246207D01*
X76155175Y-74213140D01*
X76151293Y-74189437D01*
X76144321Y-74169854D01*
X76132937Y-74149147D01*
X76132732Y-74148812D01*
X76103417Y-74113972D01*
X76065874Y-74089342D01*
X76022879Y-74075517D01*
X75977207Y-74073089D01*
X75931636Y-74082652D01*
X75898175Y-74098674D01*
X75864313Y-74127715D01*
X75839545Y-74165556D01*
X75824138Y-74209352D01*
X75818354Y-74256258D01*
X75752826Y-74256258D01*
X75753290Y-74220260D01*
X75755146Y-74192195D01*
X75758894Y-74170898D01*
X75765067Y-74152458D01*
X75768409Y-74144848D01*
X75798254Y-74096838D01*
X75838654Y-74056720D01*
X75879460Y-74030963D01*
X75904678Y-74019955D01*
X75927927Y-74013747D01*
X75955388Y-74011081D01*
X75979281Y-74010651D01*
X76037113Y-74016218D01*
G37*
D12*
%TO.C,J2*%
X80700000Y-58160000D02*
X80700000Y-59900000D01*
X80700000Y-59900000D02*
X82200000Y-59900000D01*
X80940000Y-52540000D02*
X80940000Y-59660000D01*
X80940000Y-52540000D02*
X88760000Y-52540000D01*
X80940000Y-58100000D02*
X88760000Y-58100000D01*
X80940000Y-59660000D02*
X88760000Y-59660000D01*
X88760000Y-52540000D02*
X88760000Y-59660000D01*
X81667891Y-56607742D02*
G75*
G02*
X81668000Y-55392000I1432109J607742D01*
G01*
X82492258Y-54567891D02*
G75*
G02*
X83708000Y-54568000I607742J-1432109D01*
G01*
X83127011Y-57555493D02*
G75*
G02*
X82492000Y-57432000I-27013J1555481D01*
G01*
X83707587Y-57431385D02*
G75*
G02*
X83100000Y-57555000I-607587J1431385D01*
G01*
X84532109Y-55392258D02*
G75*
G02*
X84532000Y-56608000I-1432112J-607743D01*
G01*
X88155000Y-56000000D02*
G75*
G02*
X85045000Y-56000000I-1555000J0D01*
G01*
X85045000Y-56000000D02*
G75*
G02*
X88155000Y-56000000I1555000J0D01*
G01*
%TO.C,Q2*%
X88790000Y-64762500D02*
X88790000Y-64112500D01*
X88790000Y-64762500D02*
X88790000Y-65412500D01*
X91910000Y-64762500D02*
X91910000Y-64112500D01*
X91910000Y-64762500D02*
X91910000Y-65412500D01*
X88840000Y-65925000D02*
X88510000Y-66165000D01*
X88510000Y-65685000D01*
X88840000Y-65925000D01*
G36*
X88840000Y-65925000D02*
G01*
X88510000Y-66165000D01*
X88510000Y-65685000D01*
X88840000Y-65925000D01*
G37*
%TO.C,C1*%
X89165000Y-69638748D02*
X89165000Y-70161252D01*
X90635000Y-69638748D02*
X90635000Y-70161252D01*
%TO.C,R6*%
X80665000Y-64572936D02*
X80665000Y-65027064D01*
X82135000Y-64572936D02*
X82135000Y-65027064D01*
%TO.C,R5*%
X85127064Y-62890000D02*
X84672936Y-62890000D01*
X85127064Y-64360000D02*
X84672936Y-64360000D01*
%TO.C,RV2*%
X72670000Y-61815000D02*
X77740000Y-61815000D01*
X72670000Y-71585000D02*
X72670000Y-61815000D01*
X72670000Y-71585000D02*
X77740000Y-71585000D01*
X77740000Y-71585000D02*
X77740000Y-61815000D01*
%TO.C,J1*%
X78940000Y-82260000D02*
X78940000Y-75140000D01*
X90260000Y-75140000D02*
X78940000Y-75140000D01*
X90260000Y-76700000D02*
X78940000Y-76700000D01*
X90260000Y-82260000D02*
X78940000Y-82260000D01*
X90260000Y-82260000D02*
X90260000Y-75140000D01*
X90500000Y-74900000D02*
X89000000Y-74900000D01*
X90500000Y-76640000D02*
X90500000Y-74900000D01*
X86667891Y-79407742D02*
G75*
G02*
X86668000Y-78192000I1432112J607743D01*
G01*
X87492413Y-77368615D02*
G75*
G02*
X88100000Y-77245000I607587J-1431385D01*
G01*
X88072989Y-77244507D02*
G75*
G02*
X88708000Y-77368000I27013J-1555481D01*
G01*
X88707742Y-80232109D02*
G75*
G02*
X87492000Y-80232000I-607742J1432109D01*
G01*
X89532109Y-78192258D02*
G75*
G02*
X89532000Y-79408000I-1432109J-607742D01*
G01*
X82655000Y-78800000D02*
G75*
G02*
X79545000Y-78800000I-1555000J0D01*
G01*
X79545000Y-78800000D02*
G75*
G02*
X82655000Y-78800000I1555000J0D01*
G01*
X86155000Y-78800000D02*
G75*
G02*
X83045000Y-78800000I-1555000J0D01*
G01*
X83045000Y-78800000D02*
G75*
G02*
X86155000Y-78800000I1555000J0D01*
G01*
%TD*%
M02*
